<svg width="148" height="42" viewBox="0 0 148 42" fill="none" xmlns="http://www.w3.org/2000/svg">
<path fill-rule="evenodd" clip-rule="evenodd" d="M0.54834 0H147.965V42H0.54834V0ZM2.54834 2V40H145.965V2H2.54834Z" fill="#191919"/>
<path d="M5.47827 4.763H74.2261V37.263H5.47827V4.763Z" fill="#191919"/>
<path d="M14.1836 26.5019H15.464L19.8021 15.5796H18.3503L16.5252 20.1825L14.8238 24.5206L13.1072 20.1825L11.2973 15.5796H9.83032L14.1836 26.5019Z" fill="#FDFBF5"/>
<path d="M22.8403 26.5019H24.214V15.5796H22.8403V26.5019Z" fill="#FDFBF5"/>
<path d="M32.2186 26.7038C34.6057 26.7038 36.1509 25.5341 36.1509 23.6309C36.1509 22.0228 35.0745 21.0571 32.2815 20.3692C30.1591 19.8548 29.456 19.2928 29.456 18.3878C29.456 17.3418 30.3935 16.6864 31.9538 16.6864C33.5597 16.6864 34.558 17.4981 34.5905 18.8088H35.9469C35.9317 16.6864 34.4017 15.3757 31.9538 15.3757C29.5645 15.3757 28.0519 16.5475 28.0519 18.3878C28.0519 20.074 29.2542 21.0094 31.9364 21.6495C33.9026 22.1161 34.7294 22.663 34.7294 23.6786C34.7294 24.755 33.7637 25.393 32.2186 25.393C30.5172 25.393 29.3323 24.551 29.2997 23.1469H27.926C27.9434 25.2845 29.6122 26.7038 32.2186 26.7038Z" fill="#FDFBF5"/>
<path d="M39.8599 26.5019H41.2336V15.5796H39.8599V26.5019Z" fill="#FDFBF5"/>
<path d="M50.5637 26.7038C53.8883 26.7038 56.2277 24.3644 56.2277 21.0397C56.2277 17.7173 53.8883 15.3757 50.5637 15.3757C47.239 15.3757 44.9148 17.7173 44.9148 21.0397C44.9148 24.3644 47.239 26.7038 50.5637 26.7038ZM46.3189 21.0397C46.3189 18.4963 48.0506 16.7494 50.5637 16.7494C53.0767 16.7494 54.8085 18.4963 54.8085 21.0397C54.8085 23.5831 53.0767 25.3323 50.5637 25.3323C48.0506 25.3323 46.3189 23.5831 46.3189 21.0397Z" fill="#FDFBF5"/>
<path d="M59.8899 26.5019H61.2484V17.9516L67.2879 26.5019H68.5661V15.5796H67.225V24.1299L61.1855 15.5796H59.8899V26.5019Z" fill="#FDFBF5"/>
<path d="M84.2784 26.4037C86.9932 26.4037 88.5992 25.1233 88.5992 22.9705C88.5992 21.1606 87.4294 20.0994 84.7775 19.507C83.3735 19.1945 82.8591 18.8516 82.8591 18.2895C82.8591 17.7579 83.3257 17.4302 84.0592 17.4302C84.9338 17.4302 85.4329 17.8837 85.4329 18.7106H88.3973C88.3973 16.4645 86.6807 15.0126 83.9963 15.0126C81.4225 15.0126 79.8318 16.293 79.8318 18.3525C79.8318 20.1928 81.0319 21.3321 83.4972 21.8008C84.8231 22.0656 85.4633 22.4714 85.4633 23.0964C85.4633 23.6411 84.9967 23.9536 84.2307 23.9536C83.3257 23.9536 82.7962 23.4697 82.7962 22.6277H79.7537C79.7537 24.9844 81.4377 26.4037 84.2784 26.4037Z" fill="#191919"/>
<path d="M92.9377 26.1693H96.0735V18.1637H99.3982V15.247H89.613V18.1637H92.9377V26.1693Z" fill="#191919"/>
<path d="M105.684 26.4037C108.633 26.4037 110.461 24.609 110.461 21.675V15.247H107.323V21.4731C107.323 22.7687 106.778 23.4545 105.684 23.4545C104.593 23.4545 104.046 22.7687 104.046 21.4731V15.247H100.895V21.675C100.895 24.609 102.735 26.4037 105.684 26.4037Z" fill="#191919"/>
<path d="M112.69 26.1693H117.326C120.852 26.1693 123.191 24.0014 123.191 20.7071C123.191 17.4302 120.852 15.247 117.326 15.247H112.69V26.1693ZM115.841 23.346V18.0704H117.23C118.901 18.0704 119.978 19.1012 119.978 20.7071C119.978 22.3152 118.901 23.346 117.23 23.346H115.841Z" fill="#191919"/>
<path d="M124.876 26.1693H128.027V15.247H124.876V26.1693Z" fill="#191919"/>
<path d="M135.658 26.4037C139.137 26.4037 141.602 24.0469 141.602 20.7071C141.602 17.3694 139.137 15.0126 135.658 15.0126C132.18 15.0126 129.712 17.3694 129.712 20.7071C129.712 24.0469 132.18 26.4037 135.658 26.4037ZM132.911 20.7071C132.911 19.0686 134.05 17.9315 135.658 17.9315C137.282 17.9315 138.404 19.0686 138.404 20.7071C138.404 22.3455 137.282 23.4849 135.658 23.4849C134.05 23.4849 132.911 22.3455 132.911 20.7071Z" fill="#191919"/>
</svg>
