<svg width="93" height="80" viewBox="0 0 93 80" fill="none" xmlns="http://www.w3.org/2000/svg">
<path d="M46.2147 1.19374C34.9267 1.19374 25.7431 10.3774 25.7431 21.6654C25.7431 32.9534 34.9267 42.1351 46.2147 42.1351C57.5028 42.1351 66.6844 32.9534 66.6844 21.6654C66.6844 10.3774 57.5028 1.19374 46.2147 1.19374ZM46.2147 43.3308C34.2695 43.3308 24.5493 33.6107 24.5493 21.6654C24.5493 9.72014 34.2695 0 46.2147 0C58.16 0 67.8801 9.72014 67.8801 21.6654C67.8801 33.6107 58.16 43.3308 46.2147 43.3308Z" fill="#191919"/>
<path d="M46.2148 3.82871C36.3799 3.82871 28.3781 11.8305 28.3781 21.6655C28.3781 31.5004 36.3799 39.5022 46.2148 39.5022C56.0498 39.5022 64.0516 31.5004 64.0516 21.6655C64.0516 11.8305 56.0498 3.82871 46.2148 3.82871ZM46.2148 40.6959C35.7207 40.6959 27.1824 32.1596 27.1824 21.6655C27.1824 11.1713 35.7207 2.633 46.2148 2.633C56.709 2.633 65.2453 11.1713 65.2453 21.6655C65.2453 32.1596 56.709 40.6959 46.2148 40.6959Z" fill="#191919"/>
<path d="M46.2147 6.46156C37.8308 6.46156 31.0109 13.2815 31.0109 21.6654C31.0109 30.0492 37.8308 36.8691 46.2147 36.8691C54.5985 36.8691 61.4185 30.0492 61.4185 21.6654C61.4185 13.2815 54.5985 6.46156 46.2147 6.46156ZM46.2147 38.0629C37.1736 38.0629 29.8171 30.7065 29.8171 21.6654C29.8171 12.6242 37.1736 5.26782 46.2147 5.26782C55.2558 5.26782 62.6122 12.6242 62.6122 21.6654C62.6122 30.7065 55.2558 38.0629 46.2147 38.0629Z" fill="#191919"/>
<path d="M46.2148 9.09455C39.284 9.09455 33.6439 14.7346 33.6439 21.6654C33.6439 28.5962 39.284 34.2363 46.2148 34.2363C53.1456 34.2363 58.7856 28.5962 58.7856 21.6654C58.7856 14.7346 53.1456 9.09455 46.2148 9.09455ZM46.2148 35.43C38.6248 35.43 32.4502 29.2554 32.4502 21.6654C32.4502 14.0754 38.6248 7.90082 46.2148 7.90082C53.8048 7.90082 59.9794 14.0754 59.9794 21.6654C59.9794 29.2554 53.8048 35.43 46.2148 35.43Z" fill="#191919"/>
<path d="M46.2149 11.7295C40.7352 11.7295 36.279 16.1857 36.279 21.6654C36.279 27.1451 40.7352 31.6014 46.2149 31.6014C51.6946 31.6014 56.1508 27.1451 56.1508 21.6654C56.1508 16.1857 51.6946 11.7295 46.2149 11.7295ZM46.2149 32.7971C40.0779 32.7971 35.0833 27.8024 35.0833 21.6654C35.0833 15.5265 40.0779 10.5338 46.2149 10.5338C52.3518 10.5338 57.3465 15.5265 57.3465 21.6654C57.3465 27.8024 52.3518 32.7971 46.2149 32.7971Z" fill="#191919"/>
<path d="M46.215 14.3625C42.1883 14.3625 38.912 17.6388 38.912 21.6654C38.912 25.6921 42.1883 28.9684 46.215 28.9684C50.2416 28.9684 53.5179 25.6921 53.5179 21.6654C53.5179 17.6388 50.2416 14.3625 46.215 14.3625ZM46.215 30.1621C41.5291 30.1621 37.7183 26.3513 37.7183 21.6654C37.7183 16.9796 41.5291 13.1667 46.215 13.1667C50.9008 13.1667 54.7117 16.9796 54.7117 21.6654C54.7117 26.3513 50.9008 30.1621 46.215 30.1621Z" fill="#191919"/>
<path d="M46.2151 16.9954C43.6395 16.9954 41.5451 19.0899 41.5451 21.6654C41.5451 24.239 43.6395 26.3354 46.2151 26.3354C48.7906 26.3354 50.8851 24.239 50.8851 21.6654C50.8851 19.0899 48.7906 16.9954 46.2151 16.9954ZM46.2151 27.5291C42.9823 27.5291 40.3513 24.8982 40.3513 21.6654C40.3513 18.4326 42.9823 15.8016 46.2151 15.8016C49.4479 15.8016 52.0788 18.4326 52.0788 21.6654C52.0788 24.8982 49.4479 27.5291 46.2151 27.5291Z" fill="#191919"/>
<path d="M46.2152 19.6284C45.0927 19.6284 44.1781 20.543 44.1781 21.6654C44.1781 22.7879 45.0927 23.7005 46.2152 23.7005C47.3377 23.7005 48.2523 22.7879 48.2523 21.6654C48.2523 20.543 47.3377 19.6284 46.2152 19.6284ZM46.2152 24.8962C44.4335 24.8962 42.9844 23.4471 42.9844 21.6654C42.9844 19.8837 44.4335 18.4346 46.2152 18.4346C47.9969 18.4346 49.446 19.8837 49.446 21.6654C49.446 23.4471 47.9969 24.8962 46.2152 24.8962Z" fill="#191919"/>
<path d="M6.06392 65.4804C3.95756 65.4804 2.40749 65.0488 1.41568 64.1817C0.532747 63.4176 0.0932617 62.3723 0.0932617 61.046C0.0932617 59.7216 0.532747 58.6743 1.41568 57.9023C2.40749 57.0431 3.95756 56.6115 6.06392 56.6115C7.29923 56.6115 8.32073 56.754 9.12844 57.0391C9.93614 57.3202 10.5617 57.7043 11.0052 58.1952C11.4526 58.6862 11.7515 59.2484 11.9 59.8819H8.1386C7.76247 59.2227 7.07157 58.8921 6.06392 58.8921C5.19683 58.8921 4.56136 59.1415 4.15553 59.6364C3.83284 60.0324 3.67249 60.5035 3.67249 61.046C3.67249 61.5904 3.83284 62.0595 4.15553 62.4555C4.56136 62.9524 5.19683 63.1998 6.06392 63.1998C7.07157 63.1998 7.76247 62.8672 8.1386 62.2021H11.9C11.7515 62.8415 11.4526 63.4057 11.0052 63.8967C10.5617 64.3876 9.93614 64.7756 9.12844 65.0607C8.32073 65.3398 7.29923 65.4804 6.06392 65.4804Z" fill="#191919"/>
<path d="M24.9516 65.2982H21.5782C21.4199 65.0824 21.309 64.8073 21.2457 64.4747C21.1922 64.2213 21.111 63.9719 21.0002 63.7224C20.8893 63.475 20.6953 63.2691 20.4221 63.1048C20.1529 62.9424 19.751 62.8514 19.2185 62.8355H16.8983V65.2982H13.3191V56.7778H19.1314C20.5251 56.7778 21.6455 56.8807 22.4968 57.0866C23.352 57.2925 23.9736 57.6211 24.3656 58.0685C24.7556 58.512 24.9516 59.094 24.9516 59.8106C24.9516 60.4085 24.817 60.9113 24.5477 61.3231C24.2785 61.7309 23.8509 62.0516 23.2649 62.2891C23.8291 62.5227 24.1953 62.8019 24.3656 63.1285C24.5339 63.4571 24.6368 63.8155 24.6744 64.2055C24.716 64.5539 24.809 64.9181 24.9516 65.2982ZM16.8983 60.7371L18.9413 60.7292C19.5115 60.7292 19.9589 60.7054 20.2875 60.6579C20.6141 60.6064 20.8537 60.5352 21.0081 60.4441C21.1665 60.355 21.2655 60.258 21.309 60.1511C21.3565 60.0403 21.3803 59.9274 21.3803 59.8106C21.3803 59.6958 21.3565 59.581 21.309 59.4701C21.2655 59.3592 21.1665 59.2603 21.0081 59.1692C20.8537 59.0801 20.6141 59.0108 20.2875 58.9633C19.9589 58.9118 19.5115 58.8841 18.9413 58.8841H16.8983V60.7371Z" fill="#191919"/>
<path d="M36.6351 65.2982H26.3726V56.7778H36.1679V58.8841H29.9518V60.2224H35.2018V61.8615H29.9518V63.1919H36.6351V65.2982Z" fill="#191919"/>
<path d="M51.4215 65.2982H47.7947L46.9949 63.9046H41.6182L40.8184 65.2982H37.1917L42.6476 56.7778H45.9655L51.4215 65.2982ZM45.7913 61.7903L44.3105 59.2088L42.8218 61.7903H45.7913Z" fill="#191919"/>
<path d="M58.7689 65.2982H55.1976V58.8841H51.856V56.7778H62.1106V58.8841H58.7689V65.2982Z" fill="#191919"/>
<path d="M66.9869 65.2982H63.4077V56.7778H66.9869V65.2982Z" fill="#191919"/>
<path d="M76.1186 65.2982H72.7928L68.0178 56.7778H71.6446L74.4557 62.8672L77.2668 56.7778H80.8935L76.1186 65.2982Z" fill="#191919"/>
<path d="M92.1849 65.2982H81.9224V56.7778H91.7177V58.8841H85.5016V60.2224H90.7517V61.8615H85.5016V63.1919H92.1849V65.2982Z" fill="#191919"/>
<path d="M18.6646 80C17.5124 80 16.5839 79.8753 15.8772 79.6279C15.1744 79.3804 14.6379 79.0399 14.2697 78.6063C13.8995 78.1748 13.6521 77.6759 13.5254 77.1097H17.3263C17.6054 77.5116 18.0509 77.7115 18.6646 77.7115C19.2763 77.7115 19.7257 77.5116 20.0107 77.1097C20.0305 77.0682 20.0424 77.0305 20.0424 76.9989C20.0424 76.8939 19.8999 76.8148 19.6148 76.7613C19.3337 76.7098 18.912 76.6702 18.3478 76.6425C17.6391 76.6109 16.8947 76.5356 16.1148 76.4129C14.3766 76.1437 13.5095 75.4448 13.5095 74.3144C13.5095 74.2194 13.5135 74.1204 13.5254 74.0135C13.6521 73.4493 13.8995 72.9505 14.2697 72.5169C14.6379 72.0853 15.1744 71.7448 15.8772 71.4954C16.5839 71.2479 17.5124 71.1232 18.6646 71.1232C19.8147 71.1232 20.7412 71.2479 21.444 71.4954C22.1507 71.7448 22.6892 72.0853 23.0594 72.5169C23.4276 72.9505 23.6771 73.4493 23.8038 74.0135H20.0107C19.7257 73.6136 19.2763 73.4117 18.6646 73.4117C18.0509 73.4117 17.6054 73.6136 17.3263 74.0135C17.3045 74.0452 17.2946 74.0749 17.2946 74.1006C17.2946 74.1957 17.4293 74.2669 17.6985 74.3144C17.9717 74.362 18.3735 74.4015 18.9021 74.4332C19.4287 74.4649 19.9909 74.5183 20.5888 74.5916C21.1847 74.6609 21.7449 74.7816 22.2675 74.9559C22.7902 75.1301 23.196 75.3914 23.487 75.7398C23.7186 76.0051 23.8354 76.3396 23.8354 76.7455C23.8354 76.8623 23.8236 76.983 23.8038 77.1097C23.6771 77.6759 23.4276 78.1748 23.0594 78.6063C22.6892 79.0399 22.1507 79.3804 21.444 79.6279C20.7412 79.8753 19.8147 80 18.6646 80Z" fill="#191919"/>
<path d="M31.57 79.8179H27.9987V73.4038H24.657V71.2974H34.9116V73.4038H31.57V79.8179Z" fill="#191919"/>
<path d="M41.2533 80C39.1727 80 37.7097 79.5704 36.8664 78.7093C36.1537 77.9808 35.7974 76.9335 35.7974 75.5656V71.2974H39.3687V75.5656C39.3687 76.1575 39.4677 76.6267 39.6696 76.9751C39.9586 77.466 40.4872 77.7115 41.2533 77.7115C42.0234 77.7115 42.552 77.466 42.837 76.9751C43.037 76.6168 43.1379 76.1476 43.1379 75.5656V71.2974H46.7172V75.6131C46.7172 76.9494 46.3628 77.9808 45.6561 78.7093C44.8009 79.5704 43.332 80 41.2533 80Z" fill="#191919"/>
<path d="M53.8955 79.8179H48.1941V71.2974H53.8955C56.2276 71.2974 57.9043 71.6221 58.9239 72.2714C59.7474 72.8 60.2166 73.5186 60.3334 74.4253C60.3848 74.8173 60.4126 75.1934 60.4126 75.5577C60.4126 75.918 60.3848 76.2941 60.3334 76.69C60.2859 77.086 60.1532 77.47 59.9374 77.8382C59.7256 78.2084 59.3871 78.541 58.9239 78.836C58.4586 79.1329 57.8192 79.3705 57.0075 79.5487C56.1998 79.7288 55.1625 79.8179 53.8955 79.8179ZM53.555 77.7115C55.3763 77.7115 56.4057 77.2522 56.6433 76.3337C56.7066 76.0763 56.7383 75.817 56.7383 75.5577C56.7383 75.3003 56.7027 75.0429 56.6354 74.7895C56.572 74.5322 56.4334 74.2986 56.2236 74.0927C56.0118 73.8829 55.693 73.7166 55.2654 73.5938C54.8418 73.4671 54.2717 73.4038 53.555 73.4038H51.7733V77.7115H53.555Z" fill="#191919"/>
<path d="M65.4086 79.8179H61.8293V71.2974H65.4086V79.8179Z" fill="#191919"/>
<path d="M72.7978 80C70.6914 80 69.1414 79.5685 68.1496 78.7014C67.2666 77.9313 66.8271 76.884 66.8271 75.5577C66.8271 74.2392 67.2666 73.194 68.1496 72.4219C69.1414 71.5568 70.6914 71.1232 72.7978 71.1232C74.9042 71.1232 76.4523 71.5568 77.4461 72.4219C78.327 73.194 78.7685 74.2392 78.7685 75.5577C78.7685 76.884 78.327 77.9313 77.4461 78.7014C76.4523 79.5685 74.9042 80 72.7978 80ZM72.7978 77.7115C73.657 77.7115 74.2905 77.4661 74.6983 76.9751C75.019 76.5752 75.1813 76.1021 75.1813 75.5577C75.1813 75.0152 75.019 74.5441 74.6983 74.1482C74.2905 73.6532 73.657 73.4038 72.7978 73.4038C71.9307 73.4038 71.2952 73.6532 70.8894 74.1482C70.5667 74.5441 70.4064 75.0152 70.4064 75.5577C70.4064 76.1021 70.5667 76.5752 70.8894 76.9751C71.2952 77.4661 71.9307 77.7115 72.7978 77.7115Z" fill="#191919"/>
</svg>
