<svg width="80" height="81" viewBox="0 0 80 81" fill="none" xmlns="http://www.w3.org/2000/svg">
<path d="M40 80.0021C17.9428 80.0021 0 62.0572 0 40.0021C0 17.947 17.9428 0 40 0C62.0572 0 80 17.9449 80 40.0021C80 62.0593 62.0551 80.0021 40 80.0021ZM40 0.785376C18.3782 0.785376 0.783293 18.3803 0.783293 40.0021C0.783293 61.626 18.3782 79.2167 40 79.2167C61.6239 79.2167 79.2146 61.626 79.2146 40.0021C79.2146 18.3803 61.6239 0.785376 40 0.785376ZM40 71.9212C22.3988 71.9212 8.08291 57.6012 8.08291 40.0021C8.08291 22.403 22.3988 8.085 40 8.085C57.6012 8.085 71.9192 22.4009 71.9192 40.0021C71.9192 57.6032 57.5991 71.9212 40 71.9212ZM40 8.87037C22.8342 8.87037 8.86829 22.8363 8.86829 40.0021C8.86829 57.1699 22.8342 71.1359 40 71.1359C57.1679 71.1359 71.1338 57.1679 71.1338 40.0021C71.1338 22.8384 57.1658 8.87037 40 8.87037ZM40 63.8363C39.2209 63.8363 38.4417 63.7988 37.6647 63.7217C36.8877 63.6446 36.1169 63.5321 35.3502 63.3779C34.5857 63.2259 33.8274 63.0363 33.0816 62.8113C32.3337 62.5842 31.6004 62.3218 30.8796 62.0218C30.1568 61.7239 29.4526 61.3905 28.7631 61.0218C28.0756 60.6552 27.4069 60.2531 26.7569 59.8198C26.1091 59.3865 25.482 58.9219 24.8779 58.4261C24.2758 57.9324 23.6967 57.4074 23.1446 56.8554C22.5926 56.3033 22.0697 55.7263 21.5739 55.1221C21.0781 54.5201 20.6135 53.893 20.1802 53.2431C19.7469 52.5952 19.3469 51.9265 18.9782 51.2369C18.6094 50.5494 18.2761 49.8432 17.9782 49.1224C17.6782 48.4016 17.4158 47.6683 17.1887 46.9205C16.9637 46.1726 16.7741 45.4164 16.6221 44.6518C16.4679 43.8852 16.3554 43.1144 16.2783 42.3374C16.2012 41.5603 16.1637 40.7812 16.1637 40C16.1637 39.2209 16.2012 38.4417 16.2783 37.6647C16.3533 36.8877 16.4679 36.1169 16.62 35.3502C16.7741 34.5857 16.9616 33.8295 17.1887 33.0816C17.4158 32.3358 17.6782 31.6004 17.9761 30.8796C18.2761 30.1588 18.6094 29.4526 18.9782 28.7652C19.3448 28.0756 19.7469 27.4069 20.1802 26.759C20.6135 26.1091 21.0781 25.4841 21.5739 24.88C22.0676 24.2758 22.5926 23.6988 23.1446 23.1467C23.6967 22.5947 24.2737 22.0718 24.8779 21.576C25.4799 21.0802 26.107 20.6156 26.7569 20.1823C27.4048 19.749 28.0735 19.3469 28.7631 18.9803C29.4506 18.6115 30.1568 18.2782 30.8776 17.9803C31.5984 17.6803 32.3317 17.4178 33.0795 17.1908C33.8274 16.9658 34.5836 16.7762 35.3482 16.6241C36.1148 16.47 36.8856 16.3554 37.6626 16.2804C38.4397 16.2033 39.2188 16.1658 39.9979 16.1658C40.7791 16.1658 41.5583 16.2033 42.3353 16.2804C43.1123 16.3554 43.8831 16.47 44.6498 16.622C45.4143 16.7762 46.1705 16.9637 46.9184 17.1908C47.6642 17.4178 48.3996 17.6803 49.1204 17.9782C49.8412 18.2782 50.5474 18.6115 51.2348 18.9803C51.9244 19.3469 52.5931 19.749 53.241 20.1823C53.8909 20.6156 54.5159 21.0802 55.12 21.576C55.7242 22.0718 56.3012 22.5947 56.8533 23.1467C57.4053 23.6988 57.9282 24.2758 58.424 24.88C58.9199 25.4841 59.3844 26.1091 59.8177 26.759C60.251 27.409 60.6531 28.0777 61.0197 28.7652C61.3885 29.4547 61.7218 30.1588 62.0197 30.8796C62.3197 31.6025 62.5822 32.3358 62.8092 33.0837C63.0342 33.8295 63.2238 34.5857 63.3759 35.3523C63.5279 36.119 63.6425 36.8897 63.7196 37.6668C63.7967 38.4438 63.8342 39.223 63.8342 40.0021C63.8342 40.7833 63.7946 41.5624 63.7175 42.3374C63.6404 43.1144 63.5259 43.8852 63.3717 44.6498C63.2196 45.4164 63.0301 46.1726 62.803 46.9184C62.5759 47.6642 62.3113 48.3996 62.0134 49.1204C61.7135 49.8412 61.3801 50.5453 61.0114 51.2327C60.6448 51.9202 60.2427 52.5889 59.8094 53.2368C59.3761 53.8868 58.9115 54.5117 58.4157 55.1159C57.922 55.7179 57.397 56.2971 56.845 56.847C56.295 57.3991 55.7159 57.9241 55.1138 58.4178C54.5097 58.9136 53.8847 59.3782 53.2347 59.8115C52.5868 60.2448 51.9181 60.6468 51.2307 61.0135C50.5432 61.3822 49.8391 61.7155 49.1183 62.0155C48.3975 62.3134 47.6621 62.578 46.9163 62.8051C46.1705 63.0321 45.4143 63.2217 44.6477 63.3738C43.8831 63.5279 43.1123 63.6425 42.3353 63.7196C41.5603 63.7967 40.7812 63.8363 40 63.8363ZM40 16.9533C39.2459 16.9533 38.4917 16.9887 37.7418 17.0637C36.9897 17.1366 36.2439 17.247 35.5044 17.3949C34.7628 17.5428 34.0316 17.7262 33.3087 17.9449C32.5858 18.1636 31.8775 18.4178 31.1796 18.7074C30.4817 18.9948 29.8005 19.3177 29.1339 19.674C28.4673 20.0302 27.8215 20.4177 27.1944 20.8364C26.5653 21.2572 25.9611 21.7051 25.3758 22.1843C24.7925 22.6634 24.2342 23.1696 23.7009 23.7029C23.1655 24.2362 22.6592 24.7966 22.1801 25.3799C21.703 25.9632 21.2531 26.5694 20.8343 27.1965C20.4135 27.8235 20.026 28.4714 19.6698 29.136C19.3136 29.8026 18.9928 30.4838 18.7032 31.1817C18.4136 31.8796 18.1595 32.59 17.9407 33.3108C17.722 34.0336 17.5387 34.7649 17.3908 35.5065C17.2449 36.246 17.1324 36.9918 17.0595 37.7439C16.9845 38.4938 16.9491 39.248 16.9491 40.0021C16.9491 40.7583 16.9845 41.5103 17.0595 42.2624C17.1324 43.0144 17.2429 43.7602 17.3908 44.4998C17.5387 45.2393 17.722 45.9726 17.9407 46.6934C18.1595 47.4163 18.4136 48.1267 18.7032 48.8245C18.9907 49.5203 19.3136 50.2036 19.6698 50.8682C20.026 51.5348 20.4135 52.1806 20.8322 52.8097C21.2531 53.4368 21.701 54.043 22.1801 54.6263C22.6592 55.2096 23.1655 55.7679 23.6988 56.3012C24.2342 56.8366 24.7925 57.3428 25.3758 57.822C25.9591 58.3011 26.5653 58.749 27.1923 59.1677C27.8194 59.5886 28.4673 59.976 29.1318 60.3323C29.7984 60.6885 30.4797 61.0093 31.1775 61.2989C31.8754 61.5885 32.5858 61.8426 33.3066 62.0613C34.0295 62.2801 34.7607 62.4634 35.5023 62.6113C36.2419 62.7571 36.9877 62.8676 37.7397 62.9426C38.4917 63.0155 39.2438 63.053 39.9979 63.053C40.7541 63.053 41.5062 63.0155 42.2582 62.9426C43.0103 62.8676 43.7561 62.7571 44.4956 62.6113C45.2372 62.4634 45.9684 62.2801 46.6892 62.0613C47.4121 61.8426 48.1225 61.5885 48.8204 61.2989C49.5183 61.0093 50.1995 60.6885 50.864 60.3323C51.5307 59.976 52.1765 59.5886 52.8056 59.1698C53.4326 58.749 54.0389 58.3011 54.6222 57.822C55.2055 57.3428 55.7638 56.8366 56.2971 56.3033C56.8325 55.7679 57.3387 55.2096 57.8178 54.6263C58.297 54.043 58.7449 53.4368 59.1657 52.8097C59.5844 52.1806 59.9719 51.5348 60.3281 50.8682C60.6843 50.2036 61.0052 49.5224 61.2947 48.8245C61.5843 48.1267 61.8384 47.4163 62.0572 46.6934C62.2759 45.9726 62.4593 45.2393 62.6072 44.4998C62.753 43.7602 62.8655 43.0144 62.9384 42.2624C63.0134 41.5103 63.0488 40.7583 63.0488 40.0021C63.0488 39.248 63.0113 38.4959 62.9363 37.7439C62.8613 36.9939 62.7509 36.2481 62.603 35.5086C62.4551 34.7669 62.2718 34.0378 62.0509 33.3149C61.8322 32.5921 61.578 31.8838 61.2885 31.1859C60.9989 30.4901 60.676 29.8089 60.3198 29.1422C59.9635 28.4777 59.5761 27.8298 59.1573 27.2027C58.7386 26.5757 58.2886 25.9716 57.8095 25.3883C57.3304 24.805 56.8241 24.2446 56.2908 23.7113C55.7575 23.178 55.1992 22.6717 54.6159 22.1926C54.0326 21.7135 53.4285 21.2656 52.7993 20.8447C52.1723 20.426 51.5265 20.0385 50.8619 19.6823C50.1953 19.3261 49.5141 19.0032 48.8183 18.7136C48.1204 18.424 47.41 18.1699 46.6892 17.9511C45.9664 17.7324 45.2351 17.547 44.4956 17.3991C43.7561 17.2512 43.0103 17.1408 42.2603 17.0658C41.5083 16.9908 40.7562 16.9533 40 16.9533ZM40 55.7533C39.4854 55.7533 38.9709 55.7283 38.4563 55.6763C37.9439 55.6263 37.4335 55.5513 36.9272 55.4513C36.421 55.3492 35.921 55.2242 35.4273 55.0742C34.9336 54.9242 34.4482 54.7513 33.9732 54.5534C33.4962 54.3576 33.0295 54.1368 32.5754 53.893C32.1192 53.6493 31.6775 53.3847 31.2484 53.0993C30.8192 52.8118 30.4047 52.5056 30.0068 52.1785C29.6089 51.8494 29.2256 51.5036 28.861 51.139C28.4964 50.7744 28.1506 50.3932 27.8236 49.9932C27.4965 49.5953 27.1882 49.1808 26.9028 48.7516C26.6153 48.3246 26.3507 47.8808 26.107 47.4267C25.8632 46.9726 25.6445 46.5059 25.4466 46.0288C25.2487 45.5518 25.0758 45.0664 24.9258 44.5727C24.7758 44.079 24.6508 43.5811 24.5508 43.0748C24.4487 42.5686 24.3737 42.0582 24.3237 41.5458C24.2717 41.0312 24.2467 40.5166 24.2467 40C24.2467 39.4854 24.2717 38.9709 24.3237 38.4563C24.3737 37.9439 24.4487 37.4335 24.5487 36.9272C24.6508 36.421 24.7758 35.9231 24.9258 35.4294C25.0758 34.9357 25.2487 34.4503 25.4466 33.9732C25.6424 33.4962 25.8632 33.0316 26.107 32.5754C26.3507 32.1212 26.6153 31.6796 26.9007 31.2505C27.1882 30.8213 27.4944 30.4067 27.8215 30.0089C28.1485 29.6089 28.4964 29.2276 28.861 28.8631C29.2256 28.4985 29.6068 28.1527 30.0047 27.8256C30.4047 27.4965 30.8192 27.1902 31.2463 26.9028C31.6754 26.6174 32.1192 26.3528 32.5733 26.1091C33.0274 25.8653 33.4941 25.6466 33.9711 25.4487C34.4482 25.2508 34.9315 25.0779 35.4252 24.9279C35.919 24.7779 36.4189 24.6529 36.9252 24.5508C37.4314 24.4508 37.9418 24.3758 38.4542 24.3258C38.9688 24.2737 39.4834 24.2487 39.9979 24.2487C40.5146 24.2487 41.0291 24.2737 41.5437 24.3258C42.0561 24.3758 42.5665 24.4508 43.0728 24.5508C43.5769 24.6529 44.0769 24.7779 44.5706 24.9279C45.0643 25.0779 45.5497 25.2508 46.0268 25.4487C46.5038 25.6445 46.9684 25.8653 47.4246 26.1091C47.8788 26.3528 48.3204 26.6174 48.7495 26.9028C49.1787 27.1902 49.5933 27.4965 49.9911 27.8235C50.3911 28.1527 50.7724 28.4985 51.1369 28.8631C51.5015 29.2276 51.8473 29.6089 52.1744 30.0089C52.5014 30.4067 52.8098 30.8213 53.0952 31.2505C53.3826 31.6796 53.6472 32.1212 53.8909 32.5754C54.1347 33.0316 54.3534 33.4962 54.5513 33.9732C54.7492 34.4503 54.9221 34.9357 55.0721 35.4294C55.2221 35.9231 55.3471 36.4231 55.4471 36.9293C55.5492 37.4355 55.6242 37.9459 55.6742 38.4584C55.7263 38.973 55.7513 39.4875 55.7513 40.0021C55.7492 40.5187 55.7242 41.0333 55.6742 41.5458C55.6221 42.0582 55.5471 42.5686 55.445 43.0748C55.345 43.579 55.218 44.079 55.068 44.5727C54.918 45.0664 54.7451 45.5518 54.5472 46.0268C54.3493 46.5038 54.1284 46.9684 53.8868 47.4246C53.643 47.8788 53.3785 48.3204 53.091 48.7495C52.8035 49.1766 52.4973 49.5912 52.1702 49.9891C51.8431 50.389 51.4973 50.7703 51.1328 51.1348C50.7682 51.4994 50.387 51.8452 49.987 52.1723C49.5891 52.4993 49.1745 52.8056 48.7475 53.0931C48.3183 53.3806 47.8767 53.6451 47.4225 53.8868C46.9663 54.1305 46.5017 54.3513 46.0247 54.5492C45.5497 54.7471 45.0643 54.9201 44.5706 55.07C44.0769 55.22 43.5769 55.3471 43.0728 55.4471C42.5665 55.5492 42.0561 55.6242 41.5437 55.6763C41.0312 55.7263 40.5166 55.7513 40 55.7533ZM40 25.0362C39.5104 25.0362 39.0209 25.0612 38.5334 25.1091C38.0459 25.157 37.5605 25.2279 37.0814 25.3237C36.6002 25.4195 36.1252 25.5383 35.6565 25.6799C35.1857 25.8237 34.7253 25.9882 34.2732 26.1757C33.8191 26.3632 33.3774 26.5715 32.9441 26.8028C32.5129 27.034 32.0921 27.2861 31.6859 27.559C31.2775 27.8298 30.8838 28.1215 30.5047 28.4339C30.1255 28.7443 29.763 29.0735 29.4172 29.4193C29.0693 29.7672 28.7402 30.1297 28.4298 30.5088C28.1194 30.8859 27.8277 31.2796 27.5548 31.6879C27.2819 32.0962 27.0319 32.515 26.8007 32.9483C26.5695 33.3795 26.359 33.8232 26.1716 34.2753C25.9841 34.7274 25.8195 35.1898 25.6778 35.6586C25.5341 36.1273 25.4153 36.6023 25.3195 37.0835C25.2237 37.5647 25.1529 38.048 25.1049 38.5355C25.057 39.023 25.032 39.5125 25.032 40.0021C25.032 40.4937 25.057 40.9812 25.1049 41.4708C25.1529 41.9582 25.2237 42.4415 25.3195 42.9228C25.4153 43.404 25.5341 43.879 25.6757 44.3477C25.8195 44.8164 25.9841 45.2768 26.1716 45.7309C26.359 46.183 26.5674 46.6267 26.7986 47.058C27.0298 47.4913 27.2819 47.91 27.5548 48.3183C27.8277 48.7245 28.1194 49.1183 28.4298 49.4974C28.7402 49.8766 29.0693 50.239 29.4151 50.5849C29.763 50.9328 30.1255 51.2619 30.5047 51.5723C30.8838 51.8827 31.2755 52.1744 31.6838 52.4473C32.0921 52.7202 32.5108 52.9702 32.9441 53.2014C33.3753 53.4326 33.8191 53.643 34.2711 53.8305C34.7232 54.018 35.1857 54.1826 35.6544 54.3243C36.1231 54.468 36.5981 54.5867 37.0793 54.6826C37.5605 54.7784 38.0439 54.8492 38.5313 54.8971C39.0188 54.9451 39.5084 54.9701 39.9979 54.9701C40.4896 54.9701 40.977 54.9451 41.4666 54.8971C41.9541 54.8492 42.4374 54.7784 42.9186 54.6826C43.3998 54.5867 43.8748 54.468 44.3435 54.3243C44.8123 54.1826 45.2726 54.018 45.7268 53.8305C46.1788 53.643 46.6226 53.4326 47.0538 53.2014C47.4871 52.9722 47.9058 52.7202 48.3142 52.4473C48.7204 52.1744 49.1141 51.8827 49.4933 51.5723C49.8724 51.2619 50.2349 50.9328 50.5828 50.5869C50.9286 50.239 51.2577 49.8766 51.5682 49.4974C51.8786 49.1183 52.1702 48.7266 52.4431 48.3183C52.716 47.91 52.9681 47.4913 53.1972 47.058C53.4285 46.6267 53.6389 46.183 53.8264 45.7309C54.0139 45.2768 54.1784 44.8164 54.3201 44.3477C54.4638 43.879 54.5826 43.404 54.6784 42.9228C54.7742 42.4415 54.8451 41.9582 54.893 41.4708C54.9409 40.9812 54.9659 40.4937 54.9659 40.0021C54.9659 39.5125 54.9409 39.025 54.893 38.5355C54.843 38.048 54.7722 37.5647 54.6763 37.0835C54.5784 36.6043 54.4597 36.1294 54.318 35.6606C54.1743 35.1919 54.0097 34.7315 53.8222 34.2774C53.6347 33.8253 53.4243 33.3837 53.1931 32.9504C52.9618 32.5191 52.7118 32.1004 52.4389 31.6921C52.166 31.2859 51.8744 30.8921 51.564 30.513C51.2536 30.1338 50.9244 29.7714 50.5786 29.4255C50.2307 29.0777 49.8682 28.7506 49.4912 28.4381C49.112 28.1277 48.7183 27.836 48.3121 27.5631C47.9038 27.2923 47.485 27.0403 47.0517 26.809C46.6205 26.5778 46.1788 26.3674 45.7247 26.1799C45.2726 25.9924 44.8123 25.8278 44.3435 25.6841C43.8748 25.5424 43.3998 25.4237 42.9186 25.3258C42.4395 25.2299 41.9541 25.1591 41.4666 25.1091C40.9791 25.0612 40.4916 25.0362 40 25.0362ZM40 47.6704C39.4979 47.6704 38.998 47.6225 38.5042 47.5225C38.0105 47.4246 37.5314 47.2788 37.0668 47.0871C36.6023 46.8934 36.1585 46.658 35.7398 46.3788C35.3232 46.0997 34.9357 45.7809 34.5795 45.4247C34.2232 45.0685 33.9045 44.681 33.6253 44.2623C33.3462 43.8435 33.1087 43.4019 32.917 42.9373C32.7233 42.4728 32.5796 41.9916 32.4796 41.4978C32.3816 41.0041 32.3337 40.5062 32.3337 40.0021C32.3337 39.5 32.3816 39 32.4796 38.5063C32.5796 38.0126 32.7233 37.5335 32.917 37.0689C33.1087 36.6043 33.3462 36.1606 33.6253 35.7419C33.9045 35.3252 34.2232 34.9378 34.5795 34.5815C34.9357 34.2253 35.3232 33.9066 35.7398 33.6274C36.1585 33.3483 36.6023 33.1108 37.0668 32.9191C37.5314 32.7254 38.0105 32.5816 38.5042 32.4816C38.998 32.3837 39.4979 32.3358 40 32.3358C40.5041 32.3358 41.002 32.3837 41.4958 32.4816C41.9916 32.5816 42.4707 32.7254 42.9353 32.9191C43.3998 33.1108 43.8415 33.3483 44.2602 33.6274C44.6789 33.9066 45.0664 34.2253 45.4226 34.5815C45.7789 34.9378 46.0976 35.3252 46.3768 35.7419C46.6559 36.1606 46.8913 36.6043 47.0851 37.0689C47.2767 37.5335 47.4225 38.0126 47.5204 38.5063C47.6204 39 47.6684 39.5 47.6684 40.0021C47.6684 40.5062 47.6184 41.0041 47.5204 41.4978C47.4204 41.9916 47.2767 42.4707 47.083 42.9353C46.8892 43.4019 46.6538 43.8435 46.3747 44.2602C46.0934 44.6789 45.7768 45.0664 45.4206 45.4226C45.0643 45.7789 44.6768 46.0955 44.2581 46.3767C43.8415 46.6559 43.3998 46.8913 42.9332 47.085C42.4686 47.2788 41.9895 47.4225 41.4958 47.5225C41.002 47.6204 40.5041 47.6704 40 47.6704ZM40 33.1212C39.5479 33.1212 39.1021 33.1649 38.6584 33.2524C38.2147 33.3399 37.7855 33.4712 37.3668 33.6441C36.9502 33.817 36.5523 34.0295 36.1773 34.2795C35.8023 34.5315 35.4544 34.8169 35.1336 35.1357C34.8149 35.4565 34.5295 35.8044 34.2774 36.1794C34.0274 36.5543 33.8149 36.9522 33.642 37.3689C33.4691 37.7855 33.3378 38.2168 33.2504 38.6605C33.1629 39.1042 33.1191 39.55 33.1191 40.0021C33.1191 40.4541 33.1629 40.902 33.2504 41.3458C33.3378 41.7895 33.4691 42.2186 33.642 42.6374C33.8149 43.054 34.0274 43.4519 34.2774 43.8269C34.5295 44.2019 34.8149 44.5498 35.1336 44.8706C35.4544 45.1893 35.8023 45.4747 36.1773 45.7247C36.5523 45.9768 36.9502 46.1893 37.3668 46.3622C37.7855 46.5351 38.2147 46.6642 38.6584 46.7538C39.1021 46.8413 39.5479 46.8851 40 46.8851C40.4521 46.8851 40.9 46.8413 41.3437 46.7538C41.7874 46.6642 42.2166 46.5351 42.6353 46.3622C43.0519 46.1893 43.4498 45.9768 43.8248 45.7247C44.1998 45.4747 44.5477 45.1893 44.8685 44.8706C45.1872 44.5498 45.4726 44.2019 45.7226 43.8269C45.9747 43.4519 46.1872 43.054 46.3601 42.6374C46.533 42.2186 46.6622 41.7895 46.7517 41.3458C46.8392 40.902 46.883 40.4541 46.883 40.0021C46.883 39.55 46.8392 39.1042 46.7497 38.6605C46.6622 38.2168 46.5309 37.7876 46.358 37.371C46.1851 36.9522 45.9726 36.5564 45.7226 36.1814C45.4706 35.8044 45.1851 35.4565 44.8664 35.1378C44.5456 34.819 44.1998 34.5336 43.8227 34.2815C43.4477 34.0316 43.0519 33.8191 42.6332 33.6462C42.2166 33.4733 41.7853 33.342 41.3437 33.2545C40.9 33.1649 40.4521 33.1212 40 33.1212Z" fill="#191919"/>
</svg>
