<svg width="81" height="80" viewBox="0 0 81 80" fill="none" xmlns="http://www.w3.org/2000/svg">
<path d="M80.1313 39.6333C77.5521 39.6396 74.9979 39.3938 72.4667 38.8938C69.9375 38.3938 67.4813 37.65 65.0979 36.6646C62.7146 35.6771 60.4521 34.4667 58.3104 33.0313C56.1667 31.5938 54.1854 29.9625 52.3667 28.1333C50.5396 26.3146 48.9063 24.3333 47.4708 22.1917C46.0354 20.0479 44.825 17.7854 43.8375 15.4042C42.85 13.0208 42.1083 10.5646 41.6083 8.03333C41.1083 5.50417 40.8625 2.94792 40.8688 0.36875C40.8688 0.26875 40.8333 0.18125 40.7604 0.108333C40.6896 0.0375003 40.6021 0 40.5 0C40.3979 0 40.3125 0.0375003 40.2396 0.108333C40.1667 0.18125 40.1313 0.26875 40.1313 0.36875C40.1375 2.94792 39.8917 5.50417 39.3917 8.03333C38.8938 10.5646 38.15 13.0208 37.1625 15.4042C36.175 17.7854 34.9646 20.0479 33.5292 22.1917C32.0938 24.3333 30.4604 26.3146 28.6333 28.1333C26.8146 29.9625 24.8333 31.5938 22.6917 33.0313C20.5479 34.4667 18.2854 35.6771 15.9021 36.6646C13.5208 37.65 11.0625 38.3938 8.53333 38.8938C6.00208 39.3938 3.44792 39.6396 0.86875 39.6333C0.766667 39.6333 0.679166 39.6688 0.608333 39.7396C0.535417 39.8125 0.5 39.9 0.5 40C0.5 40.1021 0.535417 40.1896 0.608333 40.2625C0.679166 40.3333 0.766667 40.3688 0.86875 40.3688C3.44792 40.3625 6.00208 40.6083 8.53333 41.1083C11.0625 41.6083 13.5188 42.3521 15.9021 43.3396C18.2854 44.325 20.5479 45.5375 22.6896 46.9729C24.8333 48.4083 26.8146 50.0396 28.6333 51.8688C30.4604 53.6875 32.0938 55.6688 33.5292 57.8104C34.9646 59.9542 36.175 62.2167 37.1625 64.5979C38.15 66.9813 38.8938 69.4375 39.3917 71.9688C39.8917 74.4979 40.1375 77.0542 40.1313 79.6333C40.1313 79.7333 40.1667 79.8208 40.2396 79.8938C40.3125 79.9646 40.3979 80 40.5 80C40.6021 80 40.6896 79.9646 40.7604 79.8938C40.8333 79.8208 40.8688 79.7333 40.8688 79.6333C40.8688 57.9833 58.4813 40.3688 80.1313 40.3688C80.2333 40.3688 80.3208 40.3333 80.3917 40.2625C80.4646 40.1896 80.5 40.1021 80.5 40C80.5 39.9 80.4646 39.8125 80.3917 39.7396C80.3208 39.6688 80.2333 39.6333 80.1313 39.6333ZM40.5 74.1771C40.2104 72.0271 39.7458 69.9188 39.1104 67.8458C38.475 65.7729 37.6729 63.7667 36.7083 61.825C35.7438 59.8854 34.6271 58.0354 33.3604 56.2771C32.0917 54.5188 30.6896 52.875 29.1521 51.3458C27.625 49.8104 25.9833 48.4083 24.225 47.1417C22.4688 45.875 20.6208 44.7583 18.6813 43.7938C16.7417 42.8292 14.7354 42.0292 12.6667 41.3938C10.5958 40.7563 8.48542 40.2917 6.33958 40C8.4875 39.7104 10.5958 39.2458 12.6667 38.6083C14.7375 37.9729 16.7417 37.1729 18.6833 36.2083C20.6229 35.2417 22.4708 34.1271 24.2271 32.8583C25.9854 31.5917 27.6271 30.1896 29.1542 28.6542C30.6917 27.1271 32.0917 25.4833 33.3604 23.7271C34.6271 21.9708 35.7417 20.1208 36.7063 18.1813C37.6729 16.2417 38.4729 14.2375 39.1083 12.1667C39.7458 10.0958 40.2083 7.9875 40.5 5.84167C40.7917 7.9875 41.2563 10.0958 41.8917 12.1667C42.5271 14.2375 43.3292 16.2417 44.2938 18.1813C45.2583 20.1208 46.3729 21.9708 47.6417 23.7271C48.9083 25.4833 50.3104 27.1271 51.8458 28.6542C53.375 30.1917 55.0167 31.5938 56.775 32.8604C58.5333 34.1292 60.3833 35.2458 62.325 36.2104C64.2667 37.175 66.2729 37.975 68.3458 38.6104C70.4167 39.2479 72.5271 39.7104 74.675 40C56.975 42.4292 42.9271 56.4771 40.5 74.1771Z" fill="#191919"/>
</svg>
