<svg width="80" height="79" viewBox="0 0 80 79" fill="none" xmlns="http://www.w3.org/2000/svg">
<path d="M80 31.1612C80 13.9799 66.0264 0 48.8534 0C47.6625 0 46.4737 0.0688256 45.2891 0.206476C44.1024 0.342041 42.9303 0.546431 41.7686 0.817561C40.6069 1.09078 39.4661 1.42865 38.344 1.83117C37.222 2.23369 36.1249 2.70087 35.0571 3.23062C33.9872 3.75828 32.9527 4.34851 31.9516 4.99713C30.9505 5.64367 29.9891 6.34861 29.0693 7.10777C28.1495 7.86485 27.2757 8.67407 26.4477 9.53543C25.6197 10.3947 24.8459 11.2978 24.1222 12.2467C20.6643 14.3052 17.7131 16.931 15.2688 20.1262C14.1113 20.8144 13.0017 21.5715 11.9422 22.4016C10.8827 23.2317 9.88164 24.1285 8.93894 25.0879C7.99625 26.0472 7.1182 27.065 6.3069 28.1391C5.49559 29.2132 4.7552 30.3332 4.08989 31.5032C3.42249 32.6732 2.83435 33.8808 2.32546 35.1259C1.81448 36.3731 1.38693 37.6453 1.04281 38.9468C0.696595 40.2482 0.437979 41.5663 0.262787 42.9011C0.0896813 44.2359 0.00208602 45.5769 0 46.9242C0 64.1055 13.9736 78.0833 31.1466 78.0833C32.3395 78.0833 33.5263 78.0145 34.713 77.8789C35.8976 77.7413 37.0697 77.5369 38.2314 77.2658C39.3931 76.9946 40.5339 76.6568 41.656 76.2522C42.778 75.8496 43.8751 75.3845 44.9429 74.8548C46.0128 74.3251 47.0473 73.7369 48.0484 73.0883C49.0495 72.4397 50.0109 71.7368 50.9307 70.9776C51.8505 70.2185 52.7243 69.4093 53.5523 68.55C54.3803 67.6907 55.1541 66.7856 55.8778 65.8366C59.3336 63.7781 62.2848 61.1523 64.7312 57.9571C65.8887 57.271 66.9983 56.5118 68.0578 55.6817C69.1173 54.8517 70.1184 53.9569 71.0611 52.9955C72.0038 52.0361 72.8818 51.0183 73.6931 49.9463C74.5044 48.8722 75.2448 47.7501 75.9101 46.5801C76.5775 45.4101 77.1657 44.2025 77.6745 42.9574C78.1855 41.7123 78.6131 40.438 78.9572 39.1366C79.3034 37.8351 79.562 36.517 79.7372 35.1822C79.9103 33.8474 79.9979 32.5064 80 31.1612ZM22.9418 13.8923C22.168 15.0519 21.4756 16.2574 20.8624 17.5108C19.5526 17.9717 18.2783 18.5161 17.0395 19.148C18.7789 17.1396 20.7477 15.3877 22.9418 13.8923ZM48.8451 61.5611C32.0893 61.5611 18.4556 47.9212 18.4556 31.157C18.4556 28.9024 18.7038 26.675 19.2023 24.4747C19.6986 22.2744 20.4328 20.1575 21.4047 18.1219C24.5644 17.0499 27.8117 16.516 31.1466 16.5202C47.9003 16.5202 61.5361 30.158 61.5361 46.9242C61.5381 49.1788 61.29 51.4083 60.7936 53.6086C60.2972 55.809 59.5651 57.9279 58.5933 59.9635C55.4356 61.0355 52.1883 61.5673 48.8534 61.5653L48.8451 61.5611ZM58.1094 60.9083C57.3148 62.437 56.3971 63.8866 55.3564 65.2589C53.0288 66.6312 50.5616 67.6719 47.9524 68.3831C45.3454 69.0922 42.6904 69.4468 39.9896 69.4426C23.2317 69.4426 9.60008 55.8048 9.60008 39.0385C9.598 37.3951 9.72939 35.7599 9.99426 34.1373C10.2591 32.5147 10.6533 30.9234 11.1789 29.3634C11.7024 27.8054 12.3489 26.2996 13.1185 24.8459C13.8902 23.3923 14.7724 22.0116 15.7672 20.7018C17.2459 19.83 18.7893 19.0896 20.3952 18.4806C18.5933 22.5142 17.6944 26.7376 17.6964 31.1549C17.6964 48.3362 31.6701 62.3161 48.843 62.3161C52.0069 62.3203 55.0998 61.851 58.1198 60.9104L58.1094 60.9083ZM62.2806 46.9201C62.2806 29.7388 48.307 15.7589 31.1341 15.7589C27.9743 15.7568 24.8876 16.2261 21.8698 17.1667C22.6665 15.64 23.5841 14.1884 24.6228 12.8161C26.9503 11.4438 29.4197 10.403 32.0267 9.69394C34.6337 8.98274 37.2887 8.63027 39.9896 8.63444C56.7454 8.63444 70.3791 22.2723 70.3791 39.0365C70.3811 40.6799 70.2498 42.315 69.9849 43.9376C69.72 45.5623 69.3258 47.1537 68.8023 48.7116C68.2768 50.2717 67.6302 51.7775 66.8606 53.2311C66.091 54.6848 65.2067 56.0655 64.2119 57.3753C62.7332 58.247 61.1898 58.9854 59.5839 59.5944C61.388 55.5649 62.291 51.3416 62.291 46.9242L62.2806 46.9201ZM31.1466 77.3263C14.3887 77.3263 0.757078 63.6863 0.757078 46.9242C0.757078 45.6875 0.83216 44.457 0.982324 43.2285C1.13249 42.0022 1.35773 40.7905 1.65598 39.5912C1.95422 38.3899 2.32546 37.2136 2.76552 36.0603C3.20768 34.9048 3.71865 33.7828 4.29845 32.6899C4.87617 31.5991 5.51854 30.5459 6.22556 29.5323C6.93258 28.5187 7.70009 27.5531 8.52391 26.6333C9.34981 25.7135 10.2279 24.8459 11.158 24.0346C12.0882 23.2212 13.0664 22.4683 14.0883 21.7738C12.3781 24.3287 11.0788 27.0754 10.1861 30.0183C9.29558 32.959 8.85135 35.9664 8.85552 39.0406C8.85552 56.2219 22.8271 70.2018 40 70.2018C42.4527 70.2039 44.8699 69.9202 47.2559 69.3467C49.6397 68.7752 51.9235 67.9326 54.1092 66.8168C53.398 67.6386 52.6472 68.4207 51.8525 69.1632C51.06 69.9035 50.2279 70.6001 49.3602 71.2529C48.4905 71.9057 47.5896 72.5085 46.6573 73.0633C45.7229 73.6201 44.7635 74.1227 43.775 74.5753C42.7864 75.0279 41.779 75.4242 40.7467 75.7683C39.7164 76.1124 38.6715 76.4002 37.6099 76.6317C36.5483 76.8632 35.4763 77.0364 34.396 77.1531C33.3156 77.2699 32.2332 77.3263 31.1466 77.3263ZM57.0478 64.189C57.8237 63.0314 58.5161 61.8239 59.1272 60.5704C60.4432 60.1116 61.7196 59.5672 62.9605 58.9353C61.2211 60.9437 59.2523 62.6936 57.0582 64.189H57.0478ZM65.9033 56.3095C67.6115 53.7546 68.9129 51.0058 69.8034 48.0651C70.694 45.1223 71.1382 42.1148 71.1361 39.0406C71.1361 21.8593 57.1646 7.88362 39.9896 7.88362C37.539 7.87945 35.1197 8.1631 32.7358 8.73664C30.3499 9.3081 28.0661 10.1507 25.8825 11.2665C26.5916 10.4448 27.3445 9.66265 28.1391 8.92017C28.9337 8.1777 29.7659 7.4811 30.6335 6.8283C31.5032 6.17551 32.4063 5.57276 33.3385 5.0159C34.2729 4.46113 35.2344 3.9585 36.223 3.50592C37.2115 3.05334 38.221 2.65499 39.2513 2.31295C40.2816 1.96882 41.3285 1.68101 42.3901 1.4495C43.4517 1.22008 44.5237 1.04489 45.604 0.930184C46.6844 0.81339 47.7668 0.757078 48.8534 0.757078C65.6072 0.757078 79.2429 14.3949 79.2429 31.1612C79.2429 32.3959 79.1678 33.6285 79.0177 34.8548C78.8675 36.0811 78.6423 37.295 78.344 38.4942C78.0458 39.6934 77.6745 40.8697 77.2345 42.0251C76.7923 43.1785 76.2813 44.3005 75.7036 45.3934C75.1238 46.4842 74.4815 47.5374 73.7744 48.551C73.0674 49.5646 72.2999 50.5303 71.4761 51.4521C70.6502 52.3719 69.7721 53.2374 68.842 54.0508C67.9118 54.8621 66.9336 55.615 65.9117 56.3095H65.9033Z" fill="#191919"/>
</svg>
