<svg width="92" height="80" viewBox="0 0 92 80" fill="none" xmlns="http://www.w3.org/2000/svg">
<path d="M2.5251 79.8961H0.279297V71.0734H2.5251V79.8961Z" fill="#191919"/>
<path d="M15.3275 79.8961H13.3459L9.28834 74.4704V79.8961H7.18408V71.0734H9.16567L13.2326 76.518V71.0734H15.3275V79.8961Z" fill="#191919"/>
<path d="M35.4966 79.8962H33.515L33.5055 74.1685L31.3919 79.0186H29.9293L27.8156 74.1685V79.8962H25.8057V71.064H28.2685L30.6558 76.3199L33.0526 71.064H35.4966V79.8962Z" fill="#191919"/>
<path d="M44.3575 70.9979C45.7211 70.9979 46.8581 71.4273 47.764 72.2812C48.6746 73.1305 49.1322 74.1944 49.1322 75.4706C49.1322 76.761 48.6746 77.8391 47.764 78.7072C46.851 79.5706 45.7116 80 44.3481 80C42.9893 80 41.857 79.5706 40.9511 78.7072C40.0452 77.8462 39.5923 76.7681 39.5923 75.4706C39.5923 74.1873 40.0452 73.1211 40.9511 72.2718C41.857 71.4226 42.9917 70.9979 44.3575 70.9979ZM44.3764 72.8757C43.6899 72.8757 43.1025 73.1281 42.6118 73.6306C42.1259 74.1284 41.8853 74.7488 41.8853 75.4895C41.8853 76.2255 42.1306 76.8483 42.6213 77.3579C43.112 77.8674 43.697 78.1222 44.3764 78.1222C45.0558 78.1222 45.6314 77.8674 46.1032 77.3579C46.5797 76.8483 46.8204 76.2255 46.8204 75.4895C46.8204 74.7488 46.5797 74.1284 46.1032 73.6306C45.6314 73.1281 45.0558 72.8757 44.3764 72.8757Z" fill="#191919"/>
<path d="M59.954 72.8757H57.293V79.8962H55.0472V72.8757H52.4146V71.064H59.954V72.8757Z" fill="#191919"/>
<path d="M66.0488 79.8961H63.803V71.0734H66.0488V79.8961Z" fill="#191919"/>
<path d="M74.8971 70.9979C76.2606 70.9979 77.3977 71.4273 78.3035 72.2812C79.2141 73.1305 79.6718 74.1944 79.6718 75.4706C79.6718 76.761 79.2141 77.8391 78.3035 78.7072C77.3906 79.5706 76.2512 80 74.8876 80C73.5288 80 72.3965 79.5706 71.4906 78.7072C70.5848 77.8462 70.1318 76.7681 70.1318 75.4706C70.1318 74.1873 70.5848 73.1211 71.4906 72.2718C72.3965 71.4226 73.5312 70.9979 74.8971 70.9979ZM74.916 72.8757C74.2295 72.8757 73.6421 73.1281 73.1514 73.6306C72.6654 74.1284 72.4248 74.7488 72.4248 75.4895C72.4248 76.2255 72.6702 76.8483 73.1608 77.3579C73.6515 77.8674 74.2366 78.1222 74.916 78.1222C75.5954 78.1222 76.171 77.8674 76.6428 77.3579C77.1193 76.8483 77.3599 76.2255 77.3599 75.4895C77.3599 74.7488 77.1193 74.1284 76.6428 73.6306C76.171 73.1281 75.5954 72.8757 74.916 72.8757Z" fill="#191919"/>
<path d="M91.8907 79.8961H89.9091L85.8516 74.4704V79.8961H83.7473V71.0734H85.7289L89.7959 76.518V71.0734H91.8907V79.8961Z" fill="#191919"/>
<path d="M65.0445 56.1119H18.0762V9.10345H65.0445V56.1119ZM18.8263 55.3617H64.2943V9.85363H18.8263V55.3617Z" fill="#191919"/>
<path d="M69.2907 51.3609H22.3247V4.35248H69.2907V51.3609ZM23.0725 50.6107H68.5405V5.10265H23.0725V50.6107Z" fill="#191919"/>
<path d="M73.7868 47.0108H26.8208V0H73.7868V47.0108ZM27.571 46.2606H73.039V0.750172H27.571V46.2606Z" fill="#191919"/>
<path d="M33.1406 30.6132H43.5274V41.0023H33.1406V30.6132Z" fill="#191919"/>
</svg>
