<svg width="80" height="80" viewBox="0 0 80 80" fill="none" xmlns="http://www.w3.org/2000/svg">
<path d="M39.9995 80C29.3202 80 19.2643 75.8425 11.7187 68.2813C4.15643 60.7347 0 50.6788 0 39.9995C0 29.3202 4.15643 19.2643 11.7187 11.7187C19.2643 4.15643 29.3202 0 39.9995 0C50.6788 0 60.7347 4.15643 68.2803 11.7187C75.8425 19.2799 79.999 29.3202 79.999 39.9995C79.999 50.6788 75.8425 60.7347 68.2803 68.2813C60.7347 75.8425 50.6788 80 39.9995 80ZM39.9995 2.39774C29.9592 2.39774 20.5111 6.31439 13.4127 13.4127C6.31439 20.5111 2.39774 29.9603 2.39774 39.9995C2.39774 50.0397 6.31439 59.4879 13.4127 66.5862C20.5111 73.6846 29.9592 77.6012 39.9995 77.6012C50.0397 77.6012 59.4879 73.6846 66.5862 66.5862C73.6846 59.4879 77.6012 50.0397 77.6012 39.9995C77.6012 29.9603 73.6846 20.5111 66.5862 13.4127C59.4879 6.31439 50.0397 2.39774 39.9995 2.39774Z" fill="#191919"/>
<path d="M48.181 22.665C48.0194 22.5148 47.7672 22.5242 47.617 22.6858L44.377 26.1834L44.1549 25.9791L47.396 22.4815C47.5462 22.3199 47.5368 22.0676 47.3752 21.9175C47.2136 21.7674 46.9613 21.7768 46.8102 21.9383L43.5701 25.437L43.3491 25.2316L46.5902 21.734C46.7393 21.5724 46.7299 21.3201 46.5683 21.17C46.4077 21.021 46.1544 21.0303 46.0043 21.1919L42.7642 24.6895L42.5432 24.4841L45.7833 20.9876C45.9334 20.825 45.924 20.5727 45.7624 20.4226C45.6009 20.2735 45.3486 20.2829 45.1985 20.4445L41.9584 23.942L41.9563 23.941L41.8552 24.0463C41.7655 24.1443 41.6842 24.2423 41.6112 24.3423L41.6081 24.3455C41.3339 24.7176 41.1776 25.1054 41.1786 25.5579C41.1796 26.0343 41.3464 26.4836 41.6508 26.8537C41.4465 27.0705 40.5343 27.9598 39.4355 29.0263C38.122 27.6304 36.9617 26.3908 36.7282 26.1188C37.068 25.7424 37.2682 25.2733 37.2922 24.7698C37.3151 24.2892 37.1681 23.8711 36.8971 23.4646H36.8981L36.8929 23.4593C36.821 23.3499 36.7397 23.2425 36.65 23.1341L36.5478 23.0184L36.5457 23.0194L36.1486 22.6045C33.9593 20.6926 32.871 20.5268 32.234 21.0731C31.4876 21.7121 31.2342 22.8234 32.9085 25.388L33.2765 25.879L33.2775 25.88L33.3171 25.928C33.7654 26.4711 34.197 26.7786 34.8183 26.8568C35.2906 26.9152 35.7576 26.8141 36.1705 26.5733C36.4029 26.8558 37.46 28.2413 38.6412 29.7956C37.017 31.3688 35.2614 33.0639 34.8058 33.5163C34.4858 33.8217 34.3096 34.0292 34.3096 34.0292C33.9989 34.3638 34.0208 34.8893 34.3586 35.202C34.6964 35.5158 35.2218 35.497 35.5324 35.1624C35.5324 35.1624 35.7524 34.9299 35.9453 34.7037L35.9463 34.7047C36.2299 34.3784 37.8124 32.4801 39.3136 30.6807C40.7209 32.5363 42.1179 34.3805 42.3848 34.7162V34.7141C42.5787 34.9633 42.7997 35.2208 42.7997 35.2208C43.1124 35.5919 43.6681 35.6367 44.0413 35.3219C44.4145 35.006 44.4635 34.4504 44.1507 34.0813C44.1507 34.0813 43.9746 33.852 43.6504 33.5132C43.2208 33.0451 41.6467 31.3761 40.1027 29.7362C41.1087 28.5353 41.9521 27.5324 42.1565 27.3072C42.5338 27.5522 42.9696 27.6679 43.4168 27.6325C44.0058 27.5866 44.4249 27.3166 44.8711 26.8245L44.9107 26.7797L44.9128 26.7786L48.2029 23.2279C48.352 23.0663 48.3426 22.814 48.181 22.665Z" fill="#191919"/>
<path d="M28.1079 40.3799C28.9189 40.3799 29.631 40.5821 30.2429 40.9845L29.7258 42.0604C29.4423 41.8936 29.1379 41.7581 28.8126 41.6517C28.4874 41.5464 28.2132 41.4933 27.9911 41.4933C27.5929 41.4933 27.3948 41.6257 27.3948 41.8894C27.3948 42.0593 27.4918 42.1959 27.6867 42.2981C27.8837 42.4013 28.1225 42.4899 28.404 42.565C28.6875 42.64 28.969 42.7307 29.2505 42.836C29.5309 42.9423 29.7686 43.1143 29.9635 43.3531C30.1606 43.5897 30.2596 43.8889 30.2596 44.2496C30.2596 44.7698 30.0553 45.1754 29.6466 45.4673C29.24 45.7592 28.7219 45.9051 28.0912 45.9051C27.6429 45.9051 27.1999 45.829 26.761 45.6758C26.321 45.5204 25.9405 45.3078 25.6184 45.0377L26.1522 43.9786C26.4243 44.2152 26.7453 44.4102 27.1154 44.5624C27.4876 44.7156 27.8181 44.7917 28.1079 44.7917C28.3299 44.7917 28.5019 44.7521 28.625 44.6708C28.7501 44.5905 28.8126 44.4738 28.8126 44.3205C28.8126 44.1704 28.7417 44.0453 28.5999 43.9452C28.4582 43.843 28.2809 43.768 28.0704 43.72C27.8587 43.67 27.6294 43.6054 27.3823 43.524C27.1342 43.4406 26.9038 43.351 26.6901 43.253C26.4785 43.1529 26.3023 42.9965 26.1605 42.7818C26.0187 42.5681 25.9478 42.3127 25.9478 42.0145C25.9478 41.5172 26.1449 41.1211 26.54 40.8261C26.934 40.529 27.4574 40.3799 28.1079 40.3799Z" fill="#191919"/>
<path d="M36.4259 40.4424V43.5824C36.4259 44.2997 36.2028 44.8699 35.7587 45.2921C35.3167 45.7123 34.7162 45.9218 33.9573 45.9218C33.1921 45.9218 32.5854 45.7123 32.135 45.2921C31.6847 44.8699 31.4595 44.2997 31.4595 43.5824V40.4424H32.8356V43.5824C32.8356 43.9442 32.9398 44.2319 33.1483 44.4456C33.3568 44.6604 33.6289 44.7667 33.9656 44.7667C34.2961 44.7667 34.5599 44.6614 34.7579 44.4498C34.9581 44.2392 35.0582 43.9494 35.0582 43.5824V40.4424H36.4259Z" fill="#191919"/>
<path d="M37.9583 40.4424H40.3185C41.0107 40.4424 41.5465 40.6072 41.9281 40.9345C42.3086 41.2629 42.4994 41.7289 42.4994 42.3314C42.4994 42.9653 42.3086 43.4573 41.9281 43.8076C41.5465 44.1579 41.0107 44.333 40.3185 44.333H39.3343V45.8592H37.9583V40.4424ZM39.3343 41.5266V43.253H40.2476C40.553 43.253 40.7876 43.1779 40.9523 43.0278C41.1191 42.8777 41.2025 42.6609 41.2025 42.3773C41.2025 42.1 41.1191 41.8884 40.9523 41.7435C40.7876 41.5996 40.553 41.5266 40.2476 41.5266H39.3343Z" fill="#191919"/>
<path d="M48.0021 41.5266H45.1373V42.6025H47.7227V43.6825H45.1373V44.7751H48.0855V45.8592H43.7612V40.4424H48.0021V41.5266Z" fill="#191919"/>
<path d="M52.7832 45.8592L51.9784 44.333H50.8942V45.8592H49.5181V40.4424H51.9408C52.6581 40.4424 53.2127 40.6072 53.6046 40.9345C53.9966 41.2629 54.1926 41.7289 54.1926 42.3314C54.1926 43.1654 53.8642 43.7451 53.2085 44.0703L54.3469 45.8592H52.7832ZM50.8942 43.253H51.9408C52.2379 43.253 52.4683 43.1779 52.633 43.0278C52.7998 42.8777 52.8832 42.6609 52.8832 42.3773C52.8832 42.1 52.7998 41.8884 52.633 41.7435C52.4683 41.5996 52.2379 41.5266 51.9408 41.5266H50.8942V43.253Z" fill="#191919"/>
<path d="M32.244 50.5338H29.6044V51.7848H32.0355V52.869H29.6044V54.8664H28.2283V49.4496H32.244V50.5338Z" fill="#191919"/>
<path d="M36.0118 49.4037C36.8541 49.4037 37.5526 49.6654 38.1093 50.1876C38.6681 50.711 38.9474 51.3657 38.9474 52.1517C38.9474 52.9419 38.666 53.6018 38.1051 54.1324C37.5463 54.6641 36.8479 54.9289 36.0118 54.9289C35.1747 54.9289 34.4783 54.6652 33.9226 54.1366C33.3659 53.606 33.0886 52.944 33.0886 52.1517C33.0886 51.3625 33.3659 50.7078 33.9226 50.1876C34.4783 49.6654 35.1747 49.4037 36.0118 49.4037ZM36.0285 50.5546C35.6052 50.5546 35.2445 50.7089 34.9443 51.0175C34.644 51.324 34.4939 51.7045 34.4939 52.16C34.4939 52.6135 34.644 52.9961 34.9443 53.3068C35.2466 53.6185 35.6073 53.7738 36.0243 53.7738C36.4434 53.7738 36.7999 53.6185 37.0918 53.3068C37.3837 52.9961 37.5297 52.6135 37.5297 52.16C37.5297 51.7045 37.3837 51.324 37.0918 51.0175C36.7999 50.7089 36.4455 50.5546 36.0285 50.5546Z" fill="#191919"/>
<path d="M42.7825 49.4037C43.6249 49.4037 44.3233 49.6654 44.88 50.1876C45.4388 50.711 45.7182 51.3657 45.7182 52.1517C45.7182 52.9419 45.4367 53.6018 44.8759 54.1324C44.3171 54.6641 43.6186 54.9289 42.7825 54.9289C41.9454 54.9289 41.249 54.6652 40.6934 54.1366C40.1367 53.606 39.8594 52.944 39.8594 52.1517C39.8594 51.3625 40.1367 50.7078 40.6934 50.1876C41.249 49.6654 41.9454 49.4037 42.7825 49.4037ZM42.7992 50.5546C42.376 50.5546 42.0153 50.7089 41.715 51.0175C41.4148 51.324 41.2647 51.7045 41.2647 52.16C41.2647 52.6135 41.4148 52.9961 41.715 53.3068C42.0173 53.6185 42.378 53.7738 42.795 53.7738C43.2141 53.7738 43.5707 53.6185 43.8626 53.3068C44.1545 52.9961 44.3004 52.6135 44.3004 52.16C44.3004 51.7045 44.1545 51.324 43.8626 51.0175C43.5707 50.7089 43.2162 50.5546 42.7992 50.5546Z" fill="#191919"/>
<path d="M46.9841 49.4496H49.3151C50.1658 49.4496 50.858 49.6998 51.3918 50.2002C51.9256 50.7006 52.1924 51.3532 52.1924 52.1559C52.1924 52.9565 51.9214 53.6091 51.3793 54.1116C50.8372 54.6151 50.1304 54.8664 49.2609 54.8664H46.9841V49.4496ZM48.3602 50.5463V53.7655H49.3443C49.7665 53.7655 50.1127 53.6185 50.3827 53.3235C50.6548 53.0264 50.7913 52.6417 50.7913 52.1684C50.7913 51.693 50.6495 51.3042 50.366 51.0008C50.0824 50.6985 49.7207 50.5463 49.2818 50.5463H48.3602Z" fill="#191919"/>
<path d="M32.7637 59.5012C33.0556 59.5012 33.3162 59.5783 33.5477 59.7305L33.3934 60.0641C33.1651 59.9255 32.9451 59.8556 32.7345 59.8556C32.623 59.8556 32.5344 59.8765 32.4677 59.9182C32.403 59.9578 32.3717 60.0141 32.3717 60.0891C32.3717 60.1642 32.4009 60.2288 32.4593 60.2809C32.5198 60.331 32.5948 60.3685 32.6845 60.3935C32.7731 60.4186 32.8701 60.4509 32.9764 60.4894C33.0817 60.5259 33.1786 60.5645 33.2683 60.6062C33.3569 60.6479 33.4309 60.7136 33.4893 60.8022C33.5477 60.8918 33.5769 60.9982 33.5769 61.1233C33.5769 61.3214 33.4976 61.4777 33.3392 61.5945C33.1828 61.7112 32.9816 61.7696 32.7345 61.7696C32.5615 61.7696 32.3947 61.7384 32.2341 61.6737C32.0757 61.6101 31.936 61.5236 31.8171 61.4152L31.9798 61.0858C32.0934 61.1921 32.2175 61.2734 32.3509 61.3318C32.4864 61.3881 32.6157 61.4152 32.7387 61.4152C32.8721 61.4152 32.9743 61.3922 33.0473 61.3443C33.1223 61.2943 33.1599 61.2275 33.1599 61.1441C33.1599 61.067 33.1286 61.0013 33.0681 60.9481C33.0098 60.896 32.9347 60.8585 32.843 60.8356C32.7533 60.8105 32.6563 60.7803 32.5511 60.7438C32.4478 60.7084 32.3509 60.6708 32.2592 60.6312C32.1695 60.5927 32.0944 60.5301 32.034 60.4436C31.9756 60.355 31.9464 60.2476 31.9464 60.1225C31.9464 59.9338 32.0215 59.7837 32.1716 59.6721C32.3217 59.5585 32.5187 59.5012 32.7637 59.5012Z" fill="#191919"/>
<path d="M35.8471 59.8555H34.6211V60.4602H35.7179V60.798H34.6211V61.4193H35.8847V61.7571H34.2458V59.5136H35.8471V59.8555Z" fill="#191919"/>
<path d="M36.9463 61.7571H36.571V59.5136H36.9463V61.7571Z" fill="#191919"/>
<path d="M39.2926 59.8555H38.5796V61.7571H38.2043V59.8555H37.4954V59.5136H39.2926V59.8555Z" fill="#191919"/>
<path d="M41.4543 61.7571H41.0748V59.8514H40.637V59.5136H41.4543V61.7571Z" fill="#191919"/>
<path d="M42.9265 61.7738C42.6816 61.7738 42.4595 61.7175 42.2593 61.6028L42.4053 61.3193C42.5492 61.4141 42.7149 61.461 42.9015 61.461C43.1121 61.461 43.2706 61.3891 43.3769 61.2442C43.4822 61.0972 43.5322 60.8981 43.527 60.6479C43.4071 60.8595 43.2028 60.9648 42.914 60.9648C42.6889 60.9648 42.5116 60.9012 42.3844 60.773C42.2562 60.6427 42.1926 60.4686 42.1926 60.2518C42.1926 60.0214 42.2635 59.8389 42.4053 59.7055C42.5492 59.57 42.741 59.5012 42.9808 59.5012C43.2643 59.5012 43.4864 59.5971 43.6479 59.7889C43.8116 59.9807 43.894 60.2476 43.894 60.5895C43.894 60.9481 43.8064 61.2359 43.6313 61.4527C43.4561 61.6675 43.2205 61.7738 42.9265 61.7738ZM42.9849 60.6688C43.1319 60.6688 43.2487 60.6291 43.3352 60.5478C43.4238 60.4644 43.4666 60.3633 43.4645 60.2434C43.4666 60.135 43.428 60.0391 43.3477 59.9557C43.2664 59.8702 43.1517 59.8264 43.0016 59.8264C42.8619 59.8264 42.7514 59.8639 42.668 59.939C42.5867 60.0141 42.5471 60.1204 42.5471 60.2559C42.5471 60.3842 42.5856 60.4853 42.6638 60.5603C42.741 60.6333 42.8484 60.6688 42.9849 60.6688Z" fill="#191919"/>
<path d="M45.1194 61.7738C44.8744 61.7738 44.6524 61.7175 44.4522 61.6028L44.5982 61.3193C44.742 61.4141 44.9078 61.461 45.0944 61.461C45.305 61.461 45.4634 61.3891 45.5698 61.2442C45.6751 61.0972 45.7251 60.8981 45.7199 60.6479C45.6 60.8595 45.3957 60.9648 45.1069 60.9648C44.8817 60.9648 44.7045 60.9012 44.5773 60.773C44.4491 60.6427 44.3855 60.4686 44.3855 60.2518C44.3855 60.0214 44.4564 59.8389 44.5982 59.7055C44.742 59.57 44.9339 59.5012 45.1736 59.5012C45.4572 59.5012 45.6792 59.5971 45.8408 59.7889C46.0045 59.9807 46.0868 60.2476 46.0868 60.5895C46.0868 60.9481 45.9993 61.2359 45.8241 61.4527C45.649 61.6675 45.4134 61.7738 45.1194 61.7738ZM45.1778 60.6688C45.3248 60.6688 45.4415 60.6291 45.5281 60.5478C45.6167 60.4644 45.6594 60.3633 45.6573 60.2434C45.6594 60.135 45.6209 60.0391 45.5406 59.9557C45.4593 59.8702 45.3446 59.8264 45.1945 59.8264C45.0548 59.8264 44.9443 59.8639 44.8609 59.939C44.7796 60.0141 44.7399 60.1204 44.7399 60.2559C44.7399 60.3842 44.7785 60.4853 44.8567 60.5603C44.9339 60.6333 45.0412 60.6688 45.1778 60.6688Z" fill="#191919"/>
<path d="M47.3676 59.5012C47.5813 59.5012 47.7533 59.5533 47.8847 59.6554C48.015 59.7555 48.0807 59.8921 48.0807 60.0641C48.0807 60.2591 47.9441 60.504 47.672 60.798L47.0882 61.4193H48.1849V61.7571H46.592V61.4819L47.4176 60.5937C47.598 60.4081 47.6887 60.2497 47.6887 60.1183C47.6887 60.0297 47.6553 59.9599 47.5886 59.9098C47.5219 59.8577 47.4302 59.8306 47.3134 59.8306C47.1101 59.8306 46.9058 59.9244 46.7004 60.11L46.5503 59.8181C46.814 59.6075 47.0861 59.5012 47.3676 59.5012Z" fill="#191919"/>
</svg>
