<svg width="86" height="80" viewBox="0 0 86 80" fill="none" xmlns="http://www.w3.org/2000/svg">
<path d="M0.0595703 67.8347H1.3968V57.1907H0.0595703V67.8347Z" fill="#191919"/>
<path d="M14.5198 57.1907V65.4019L8.55844 57.1907H7.34277V67.8347H8.65077V59.5328L14.7014 67.8347H15.8263V57.1907H14.5198Z" fill="#191919"/>
<path d="M28.9035 57.1907L25.5135 65.8435L22.0757 57.1907H20.6016L24.9041 67.8347H26.1367L30.3638 57.1907H28.9035Z" fill="#191919"/>
<path d="M35.1846 67.8347H36.5218V57.1907H35.1846V67.8347Z" fill="#191919"/>
<path d="M45.6458 67.9717C47.7586 67.9717 49.4021 66.8315 49.4021 64.8233C49.4021 62.6043 47.5155 62.1627 45.8428 61.7518C44.4748 61.4333 43.2437 61.1286 43.2437 59.973C43.2437 58.9543 44.2163 58.3464 45.5089 58.3464C46.8015 58.3464 47.774 59.0312 47.774 60.2161H49.0974C49.0974 58.2864 47.7448 57.0692 45.5397 57.0692C43.3345 57.0692 41.9204 58.1787 41.9204 60.0191C41.9204 62.1473 43.73 62.5889 45.3719 62.969C46.7553 63.303 48.0172 63.5923 48.0172 64.8387C48.0172 65.9651 46.9692 66.6637 45.6304 66.6637C44.1563 66.6637 43.076 65.8882 43.076 64.5663H41.708C41.708 66.6637 43.3038 67.9717 45.6458 67.9717Z" fill="#191919"/>
<path d="M54.5869 67.8347H55.9241V57.1907H54.5869V67.8347Z" fill="#191919"/>
<path d="M66.7204 68.0179C69.9443 68.0179 72.2848 65.6604 72.2848 62.5274C72.2848 59.3805 69.9443 57.0231 66.7204 57.0231C63.4966 57.0231 61.1392 59.3805 61.1392 62.5274C61.1392 65.6604 63.4966 68.0179 66.7204 68.0179ZM66.7204 66.7099C64.303 66.7099 62.5087 64.9003 62.5087 62.5274C62.5087 60.1407 64.303 58.3311 66.7204 58.3311C69.1379 58.3311 70.9322 60.1253 70.9322 62.5274C70.9322 64.9157 69.1379 66.7099 66.7204 66.7099Z" fill="#191919"/>
<path d="M84.6936 57.1907V65.4019L78.7323 57.1907H77.5166V67.8347H78.8246V59.5328L84.8752 67.8347H86.0001V57.1907H84.6936Z" fill="#191919"/>
<path d="M20.7153 79.5491C21.5494 79.5491 22.1988 79.0998 22.1988 78.3073C22.1988 77.4302 21.454 77.2563 20.7938 77.0932C20.2537 76.967 19.7674 76.847 19.7674 76.3915C19.7674 75.9898 20.1506 75.7482 20.6615 75.7482C21.1724 75.7482 21.5555 76.0191 21.5555 76.4869H22.0787C22.0787 75.7252 21.5432 75.2451 20.6738 75.2451C19.8028 75.2451 19.2442 75.6836 19.2442 76.4099C19.2442 77.2501 19.9582 77.424 20.6076 77.5748C21.1539 77.7056 21.6525 77.8195 21.6525 78.3119C21.6525 78.7566 21.237 79.0336 20.7092 79.0336C20.1275 79.0336 19.7013 78.7274 19.7013 78.2042H19.1611C19.1611 79.0336 19.7905 79.5491 20.7153 79.5491Z" fill="#191919"/>
<path d="M32.0381 80L31.221 79.0567C31.6842 78.6613 31.9596 78.078 31.9596 77.3994C31.9596 76.1576 31.0348 75.2266 29.7622 75.2266C28.4896 75.2266 27.5586 76.1576 27.5586 77.3994C27.5586 78.6366 28.4896 79.5676 29.7622 79.5676C30.1469 79.5676 30.507 79.483 30.8132 79.3276L31.3902 80H32.0381ZM29.7622 79.0506C28.8081 79.0506 28.1003 78.3366 28.1003 77.3994C28.1003 76.4577 28.8081 75.7437 29.7622 75.7437C30.7178 75.7437 31.4256 76.4515 31.4256 77.3994C31.4256 77.9103 31.2148 78.355 30.8732 78.649L30.1161 77.7718H29.4744L30.4593 78.9136C30.2484 79.0029 30.0145 79.0506 29.7622 79.0506Z" fill="#191919"/>
<path d="M39.2303 79.5676C40.1735 79.5676 40.8752 78.8889 40.8752 77.9349V75.2927H40.3474V77.8918C40.3474 78.5889 39.8796 79.0505 39.2303 79.0505C38.5763 79.0505 38.1146 78.5889 38.1146 77.8918V75.2927H37.5791V77.9349C37.5791 78.8889 38.2823 79.5676 39.2303 79.5676Z" fill="#191919"/>
<path d="M49.712 79.4952H50.2829L48.5178 75.2927H48.0254L46.3081 79.4952H46.8667L47.2745 78.4919H49.298L49.712 79.4952ZM48.2778 76.019L49.1011 78.0057H47.473L48.2778 76.019Z" fill="#191919"/>
<path d="M58.2134 79.4952H58.8089L57.7995 77.7902C58.3519 77.6348 58.7304 77.1716 58.7304 76.5776C58.7304 75.8328 58.1488 75.2927 57.3609 75.2927H55.7651V79.4952H56.293V77.8564H57.247L58.2134 79.4952ZM56.293 75.7975H57.3317C57.8472 75.7975 58.1903 76.1268 58.1903 76.5776C58.1903 77.027 57.8472 77.3517 57.3317 77.3517H56.293V75.7975Z" fill="#191919"/>
<path d="M64.9624 78.9905V77.5794H66.6551V77.0931H64.9624V75.7975H66.812V75.2927H64.4346V79.4952H66.8782V78.9905H64.9624Z" fill="#191919"/>
<path d="M23.939 3.44232H33.9582L32.641 4.72262H24.5791V12.7752L23.2988 14.1017V3.44232H23.939ZM37.6037 3.44232H48.4585L49.7388 4.72262H36.3234L37.6037 3.44232ZM52.1409 3.44232H62.8002V14.1017L61.483 12.7845V4.72262H53.4304L52.1409 3.44232ZM62.8002 17.7487V28.602L61.483 29.8823V16.4684L62.8002 17.7487ZM62.8002 32.2859V42.9453H52.1409L53.4211 41.628H61.4738V33.5754L62.8002 32.2859ZM48.4585 42.9453H37.6037L36.3234 41.628H49.7388L48.4585 42.9453ZM33.9582 42.9453H23.2988V32.2859L24.5791 33.5662V41.6188H32.6317L33.9582 42.9453ZM23.2988 28.602V17.7487L24.5791 16.4684V29.8823L23.2988 28.602Z" fill="#191919"/>
<path d="M47.9743 0.204663L66.2415 18.4719V27.9249L47.7711 46.3861H38.3259L19.8555 27.9157C19.8555 24.7519 19.8555 21.5896 19.8555 18.4627C25.9877 12.3028 32.1568 6.13372 38.3259 0H47.7804L47.9743 0.204663ZM64.9243 18.9905L47.2141 1.28029H38.846L21.1358 18.9905V27.3586L38.8368 45.0596H47.2048L64.9058 27.3586V18.9905H64.9243Z" fill="#191919"/>
<path d="M43.485 3.88858L48.1707 8.57273H46.3241L43.0495 5.25197L39.7288 8.57273H37.9284L43.0495 3.44232L43.485 3.88858ZM50.7775 11.1795L55.0631 15.4666V17.2655L48.9309 11.1795H50.7775ZM57.6698 18.0641L62.8002 23.193L57.6698 28.3234V26.4784L60.9552 23.193L57.6698 19.8723V18.0641ZM55.0631 30.921L50.7775 35.2081H48.9309L55.0631 29.0759V30.921ZM48.1799 37.8149L43.0495 42.9453L37.9191 37.8149H39.7195L43.0495 41.0987L46.3334 37.8149H48.1799ZM35.3216 35.2081L31.036 30.921V29.0759L37.122 35.2081H35.3216ZM28.4292 28.3234L23.2988 23.193L28.4292 18.0641V19.863L25.1069 23.193L28.4292 26.4784V28.3234ZM31.036 15.4666L35.3216 11.1795H37.122L31.036 17.2655V15.4666Z" fill="#191919"/>
<path d="M56.9922 14.2602V32.369L52.4188 36.9701L51.9372 37.1286H34.1146L33.6791 36.9701L29.0688 32.3598V13.9817L33.8361 9.21289H52.2234L56.9922 13.9817V14.2602ZM55.7027 31.8489V14.5387L51.6956 10.4932H34.3932L30.3491 14.5387V31.8396L34.3932 35.8483H51.6956L55.7027 31.8489Z" fill="#191919"/>
<path d="M43.4841 9.93617L48.4114 14.8635L43.0486 20.2709L37.6396 14.8635L43.0486 9.49146L43.4841 9.93617ZM46.6109 14.8635L43.0486 11.2534L39.4401 14.8635L43.0486 18.472L46.6109 14.8635Z" fill="#191919"/>
<path d="M56.3059 23.6301L51.3432 28.5558L45.9712 23.193L51.3432 17.7856L56.7506 23.193L56.3059 23.6301ZM51.3432 26.8031L54.9517 23.193L51.3432 19.5845L47.7716 23.193L51.3432 26.8031Z" fill="#191919"/>
<path d="M42.6136 36.4515L37.6494 31.4873L43.0584 26.1168L48.4304 31.4873L43.0491 36.8962L42.6136 36.4515ZM39.4406 31.4873L43.0491 35.0958L46.6115 31.4873L43.0491 27.9157L39.4406 31.4873Z" fill="#191919"/>
<path d="M29.792 22.7575L34.7177 17.7949L40.1266 23.2038L34.7177 28.5743L29.3457 23.193L29.792 22.7575ZM34.7177 19.5845L31.1092 23.193L34.7177 26.8031L38.3262 23.193L34.7177 19.5845Z" fill="#191919"/>
<path d="M43.4845 18.8705L47.8086 23.193L43.0491 27.9618L38.2803 23.193L43.0491 18.4258L43.4845 18.8705ZM46.0174 23.193L43.0491 20.2247L40.0807 23.193L43.0491 26.1629L46.0174 23.193Z" fill="#191919"/>
</svg>
