<svg width="62" height="80" viewBox="0 0 62 80" fill="none" xmlns="http://www.w3.org/2000/svg">
<path d="M61.2799 40.1236C61.282 40.1174 61.282 40.1111 61.2799 40.1049C61.2903 40.0715 61.2945 40.0402 61.2966 40.0047C61.2945 39.9713 61.2903 39.94 61.2799 39.9066C61.282 39.9004 61.282 39.8941 61.2799 39.8878C61.2694 39.8565 61.2548 39.8273 61.2361 39.8002L30.9258 0.127284L30.9154 0.116851C30.9029 0.102244 30.8882 0.0876379 30.8736 0.077205C30.809 0.025039 30.738 0 30.6566 0C30.5753 0 30.5022 0.025039 30.4396 0.077205C30.425 0.0876379 30.4104 0.102244 30.3979 0.116851L30.3854 0.127284L0.0709451 39.7939C0.0500786 39.8211 0.0354724 39.8503 0.0250394 39.8816C0.0250394 39.8878 0.0250394 39.8941 0.0250394 39.9004C0.016693 39.9317 0.0104331 39.965 0.0104331 39.9984H0C0 40.0318 0.00625986 40.0652 0.0146063 40.0986C0.0146063 40.1049 0.0146063 40.1111 0.0146063 40.1174C0.0250393 40.1487 0.0396455 40.1779 0.060512 40.2029L30.3624 79.8696C30.3666 79.8738 30.3687 79.8779 30.3749 79.8821L30.4062 79.9155L30.4292 79.9343C30.4417 79.9447 30.4542 79.953 30.4688 79.9593L30.4918 79.9718L30.5419 79.9906H30.5627C30.6128 80.0031 30.6629 80.0031 30.7109 79.9906H30.7318L30.7818 79.9718L30.8048 79.9593C30.8194 79.953 30.8319 79.9447 30.8444 79.9343L30.8674 79.9155L30.9008 79.8821C30.9049 79.8779 30.9091 79.8738 30.9133 79.8696L61.2152 40.2029C61.2402 40.18 61.2632 40.1549 61.2799 40.1236ZM30.9947 31.6394H54.129L57.4614 35.9984H30.9947V31.6394ZM30.9947 30.9446V26.5856H50.2667L53.5969 30.9446H30.9947ZM30.9947 25.8908V21.5277H46.4044L49.7367 25.8887L30.9947 25.8908ZM30.9947 20.8328V16.476H42.5379L45.8723 20.8328H30.9947ZM30.9947 15.779V11.4201H38.6776L42.0078 15.7811L30.9947 15.779ZM30.9947 10.7231V6.36419H34.8132L38.1497 10.7252L30.9947 10.7231ZM30.9947 5.66726V1.36465L34.2832 5.66935L30.9947 5.66726ZM30.3019 39.6583H1.04748L30.3019 1.36465V39.6583ZM30.9947 40.3532H60.2574L30.9947 78.6468V40.3532ZM30.9947 39.6583V36.6932H57.9914L60.2574 39.6583H30.9947Z" fill="#191919"/>
</svg>
