<svg width="80" height="81" viewBox="0 0 80 81" fill="none" xmlns="http://www.w3.org/2000/svg">
<path d="M79.7995 38.7409C79.6661 38.6846 79.5473 38.7076 79.4452 38.8097L67.0895 51.1654V26.1288C67.0895 25.985 67.0207 25.885 66.8873 25.8308C66.7539 25.7745 66.6351 25.7974 66.5329 25.8996L54.1772 38.2553V13.2187C54.1668 13.0832 54.098 12.9894 53.973 12.9415C53.8458 12.8915 53.7333 12.9123 53.6332 13.004L41.2775 25.3597V0.323142C41.2733 0.18141 41.2066 0.0834479 41.0774 0.0292565C40.9461 -0.0249355 40.8294 -0.0040919 40.7273 0.0938697L0.0938696 40.7439C-0.00409254 40.8461 -0.0249351 40.9628 0.0292564 41.092C0.0834484 41.2233 0.181411 41.29 0.323142 41.2921H25.3451L13.004 53.6478C12.9019 53.7499 12.879 53.8688 12.9331 54.0021C12.9894 54.1355 13.0895 54.2022 13.2333 54.2022H38.2511L25.9058 66.558C25.8037 66.6622 25.7808 66.7789 25.8349 66.9123C25.8912 67.0457 25.9892 67.1124 26.1351 67.1124H51.1571L38.8097 79.4681C38.7097 79.5723 38.6846 79.689 38.7409 79.8224C38.7951 79.9558 38.8952 80.0225 39.039 80.0225H79.6744C79.7641 80.0225 79.8412 79.9913 79.9037 79.9287C79.9683 79.8641 79.9996 79.7891 79.9996 79.6974V39.0536C80.0058 38.9035 79.9391 38.7993 79.7995 38.7409ZM1.10892 40.6418L40.6335 1.10892V26.01L25.9954 40.6418H1.10892ZM40.6335 26.9167V40.6418H26.9146L40.6335 26.9167ZM14.0149 53.554L26.2643 41.2921H40.9586C41.0482 41.2921 41.1254 41.2608 41.1879 41.1983C41.2525 41.1337 41.2838 41.0566 41.2838 40.967V26.2726L53.5394 14.0128V38.9118L38.9056 53.554H14.0149ZM53.5394 39.8289V53.5519H39.8206L53.5394 39.8289ZM26.9188 66.46L39.1703 54.2043H53.8646C53.9542 54.2043 54.0292 54.1731 54.0939 54.1084C54.1564 54.0459 54.1897 53.9688 54.1897 53.8792V39.1786L66.4433 26.9167V51.8157L51.8116 66.46H26.9188ZM66.4433 52.737V66.46H52.7266L66.4433 52.737ZM79.3493 79.366H39.831L52.0804 67.1103H66.7685C66.8581 67.1103 66.9352 67.079 66.9998 67.0144C67.0624 66.9519 67.0936 66.8748 67.0936 66.7851V52.0867L79.3493 39.8289V79.366Z" fill="#191919"/>
</svg>
