<svg width="99" height="80" viewBox="0 0 99 80" fill="none" xmlns="http://www.w3.org/2000/svg">
<path d="M5.41318 64.2701L0.985107 79.7824H2.51844L3.6202 75.8456H9.23073L10.3325 79.7824H11.8693L7.44125 64.2701H5.41318ZM6.41669 65.828L8.8588 74.5649H3.97458L6.41669 65.828Z" fill="#191919"/>
<path d="M18.4623 64.035H17.0833V76.8315L16.9675 79.7824H18.1079L18.3044 78.3648C18.8553 79.2701 19.8202 79.9999 21.4131 79.9999C24.2693 79.9999 25.4096 77.6946 25.4096 74.8034V74.3297C25.4096 71.435 24.2693 69.1332 21.4131 69.1332C19.957 69.1332 19.0131 69.7648 18.4623 70.5508V64.035ZM18.4623 71.9859C18.8763 71.2981 19.6833 70.3718 21.1009 70.3718C23.0693 70.3718 23.9921 71.9087 23.9921 74.3297V74.8034C23.9921 77.2245 23.0693 78.7578 21.1009 78.7578C19.6833 78.7578 18.8763 77.835 18.4623 77.1438V71.9859Z" fill="#191919"/>
<path d="M34.8378 78.8386C32.7711 78.8386 32.1992 77.7368 32.1992 76.593H30.8237V76.6737C30.8237 78.2666 31.8869 80 34.8378 80C37.4167 80 38.8553 78.7403 38.8553 76.9298V76.8316C38.8553 74.9193 37.7325 74.1719 35.115 73.9544C32.8518 73.7789 32.3395 73.1894 32.3395 72.1052C32.3395 70.9438 33.2623 70.2947 34.8378 70.2947C36.7886 70.2947 37.3781 71.221 37.3781 72.7158H38.736V72.6386C38.736 70.5894 37.6939 69.1333 34.8378 69.1333C32.3992 69.1333 30.9606 70.2947 30.9606 72.1052V72.2245C30.9606 73.7789 31.7676 74.7614 34.5816 75C36.6097 75.1754 37.4378 75.5123 37.4378 76.9298C37.4378 78.0912 36.5325 78.8386 34.8378 78.8386Z" fill="#191919"/>
<path d="M46.9627 69.3509V66.3965H45.5838V69.3509H43.9312V70.5895H45.5838V76.8877C45.5838 79.1509 46.8645 80 48.6364 80C49.461 80 49.9347 79.8421 50.0926 79.7825V78.5825C49.9347 78.6597 49.4013 78.7579 48.9698 78.7579C47.6505 78.7579 46.9627 78.3649 46.9627 76.7123V70.5895H50.2891V69.3509H46.9627Z" fill="#191919"/>
<path d="M59.9723 69.1333C58.5758 69.1333 57.6109 69.8631 57.06 70.7263L56.8635 69.3508H55.7231L55.8389 72.3017V79.7824H57.2179V72.0456C57.6495 71.3579 58.4179 70.4701 59.9933 70.4701H60.267V69.1544C60.2495 69.1544 60.1126 69.1333 59.9723 69.1333Z" fill="#191919"/>
<path d="M72.238 79.7824H73.3783L73.259 76.8316V73.0105C73.259 70.7087 72.3748 69.1333 69.4801 69.1333C66.4099 69.1333 65.7222 71.0421 65.7222 72.6175V72.793H67.0415C67.0415 71.4351 67.4941 70.2947 69.4625 70.2947C71.3117 70.2947 71.8836 71.221 71.8836 73.0105V73.2877L68.7327 73.7789C67.0415 74.0351 65.3257 74.6842 65.3257 76.9473V77.1438C65.3257 78.8175 66.4309 80 68.3397 80C70.1503 80 71.3292 79.2316 72.0204 78.3263L72.238 79.7824ZM68.6941 78.8C67.2941 78.8 66.7046 77.9509 66.7046 77.028V76.8491C66.7046 75.6701 67.5117 75.0175 68.852 74.7824L71.8836 74.2912V77.1438C71.5081 77.7544 70.6239 78.8 68.6941 78.8Z" fill="#191919"/>
<path d="M80.2266 74.8035V74.3298C80.2266 71.9473 81.1318 70.3719 83.1985 70.3719C85.0897 70.3719 85.8582 71.5754 85.8582 73.1684H87.1775V72.7754C87.1775 71.0807 86.0546 69.1333 83.181 69.1333C80.1283 69.1333 78.8301 71.4351 78.8301 74.3298V74.8035C78.8301 77.6947 80.1283 80 83.181 80C86.0546 80 87.1775 78.1298 87.1775 76.4772V76.1614H85.8582C85.8582 77.5193 85.1494 78.7579 83.1985 78.7579C81.1318 78.7579 80.2266 77.1824 80.2266 74.8035Z" fill="#191919"/>
<path d="M95.1278 69.3509V66.3965H93.7488V69.3509H92.0962V70.5895H93.7488V76.8877C93.7488 79.1509 95.0295 80 96.8015 80C97.626 80 98.0997 79.8421 98.2576 79.7825V78.5825C98.0997 78.6597 97.5664 78.7579 97.1348 78.7579C95.8155 78.7579 95.1278 78.3649 95.1278 76.7123V70.5895H98.4541V69.3509H95.1278Z" fill="#191919"/>
<path d="M71.2571 43.7825H72.5974V45.1194H71.2571V43.7825Z" fill="#191919"/>
<path d="M27.478 1.35437H28.8324V43.7825H27.478V1.35437Z" fill="#191919"/>
<path d="M27.478 43.7825H28.8324V45.1194H27.478V43.7825Z" fill="#191919"/>
<path d="M71.2571 1.35437H72.5974V43.7825H71.2571V1.35437Z" fill="#191919"/>
<path d="M28.8325 43.7825H71.2571V45.1194H28.8325V43.7825Z" fill="#191919"/>
<path d="M71.2571 0H72.5974V1.35439H71.2571V0Z" fill="#191919"/>
<path d="M27.478 0H28.8324V1.35439H27.478V0Z" fill="#191919"/>
<path d="M28.8325 0H71.2571V1.35439H28.8325V0Z" fill="#191919"/>
<path d="M33.478 6.0036H66.2851V38.8071H33.478V6.0036Z" fill="#191919"/>
<path d="M43.0886 20.8597H56.8535V23.9193H43.0886V20.8597Z" fill="#FDFBF5"/>
</svg>
